<svg width="347" height="184" viewBox="0 0 347 184" fill="none" xmlns="http://www.w3.org/2000/svg">
<rect x="1" y="1" width="345" height="182" rx="12" fill="#FAF4FE" stroke="#00005B" stroke-dasharray="6 6"/>
<path fill-rule="evenodd" clip-rule="evenodd" d="M184.597 75.6622C184.597 76.7859 185.497 77.6849 186.622 77.6849C187.747 77.6849 188.67 76.7859 188.67 75.6622C188.67 74.5384 187.747 73.6169 186.622 73.6169C185.497 73.6169 184.597 74.5384 184.597 75.6622ZM180.233 89.2371C178.635 90.8328 176.43 91.8217 174 91.8217C171.638 91.8217 169.433 90.9003 167.745 89.2371C166.08 87.5515 165.158 85.3489 165.158 82.9891C165.135 80.6517 166.058 78.4491 167.723 76.7635C169.41 75.0778 171.638 74.1564 174 74.1564C176.363 74.1564 178.59 75.0778 180.255 76.741C181.92 78.4266 182.843 80.6517 182.843 82.9891C182.82 85.4388 181.83 87.6414 180.233 89.2371ZM174 77.5276C172.537 77.5276 171.165 78.0895 170.107 79.1459C169.072 80.1797 168.51 81.5507 168.532 82.9666V82.9891C168.532 84.45 169.095 85.8209 170.13 86.8548C171.165 87.8886 172.537 88.4505 174 88.4505C177.015 88.4505 179.445 86.0007 179.467 82.9891C179.467 81.5282 178.905 80.1572 177.87 79.1234C176.835 78.0895 175.462 77.5276 174 77.5276Z" fill="#00005B"/>
<path opacity="0.4" d="M186.24 67.0319L186.015 66.5375C185.408 65.2564 184.71 63.773 184.283 62.919C183.247 60.8962 181.47 59.7725 179.288 59.75H168.69C166.507 59.7725 164.752 60.8962 163.717 62.919C163.267 63.818 162.503 65.4362 161.873 66.7622L161.738 67.0319C161.67 67.2117 161.49 67.3016 161.31 67.3016C155.888 67.3016 151.5 71.7067 151.5 77.1007V90.4509C151.5 95.8449 155.888 100.25 161.31 100.25H186.69C192.09 100.25 196.5 95.8449 196.5 90.4509V77.1007C196.5 71.7067 192.09 67.3016 186.69 67.3016C186.487 67.3016 186.33 67.1892 186.24 67.0319Z" fill="#00005B"/>
<path d="M115.068 124L118.186 115.545H118.994V116.91H118.66L116.176 124H115.068ZM116.48 121.58L116.809 120.684H120.629L120.957 121.58H116.48ZM121.238 124L118.754 116.91V115.545H119.229L122.346 124H121.238ZM125.28 124.111C124.748 124.111 124.284 123.977 123.885 123.707C123.487 123.438 123.178 123.059 122.959 122.57C122.741 122.078 122.631 121.504 122.631 120.848V120.836C122.631 120.176 122.741 119.602 122.959 119.113C123.178 118.625 123.485 118.246 123.879 117.977C124.278 117.707 124.745 117.572 125.28 117.572C125.569 117.572 125.84 117.619 126.094 117.713C126.352 117.803 126.58 117.93 126.78 118.094C126.979 118.258 127.135 118.453 127.248 118.68H127.342V115.176H128.362V124H127.342V122.992H127.248C127.12 123.227 126.957 123.428 126.762 123.596C126.567 123.76 126.344 123.887 126.094 123.977C125.844 124.066 125.573 124.111 125.28 124.111ZM125.514 123.209C125.897 123.209 126.227 123.113 126.504 122.922C126.782 122.73 126.995 122.459 127.143 122.107C127.291 121.752 127.366 121.332 127.366 120.848V120.836C127.366 120.348 127.291 119.928 127.143 119.576C126.995 119.225 126.782 118.953 126.504 118.762C126.227 118.57 125.897 118.475 125.514 118.475C125.131 118.475 124.801 118.57 124.524 118.762C124.25 118.949 124.039 119.219 123.891 119.57C123.746 119.922 123.674 120.344 123.674 120.836V120.848C123.674 121.336 123.746 121.758 123.891 122.113C124.039 122.465 124.25 122.736 124.524 122.928C124.801 123.115 125.131 123.209 125.514 123.209ZM132.251 124.111C131.72 124.111 131.255 123.977 130.856 123.707C130.458 123.438 130.149 123.059 129.93 122.57C129.712 122.078 129.602 121.504 129.602 120.848V120.836C129.602 120.176 129.712 119.602 129.93 119.113C130.149 118.625 130.456 118.246 130.85 117.977C131.249 117.707 131.716 117.572 132.251 117.572C132.54 117.572 132.811 117.619 133.065 117.713C133.323 117.803 133.552 117.93 133.751 118.094C133.95 118.258 134.106 118.453 134.22 118.68H134.313V115.176H135.333V124H134.313V122.992H134.22C134.091 123.227 133.929 123.428 133.733 123.596C133.538 123.76 133.315 123.887 133.065 123.977C132.815 124.066 132.544 124.111 132.251 124.111ZM132.485 123.209C132.868 123.209 133.198 123.113 133.475 122.922C133.753 122.73 133.966 122.459 134.114 122.107C134.262 121.752 134.337 121.332 134.337 120.848V120.836C134.337 120.348 134.262 119.928 134.114 119.576C133.966 119.225 133.753 118.953 133.475 118.762C133.198 118.57 132.868 118.475 132.485 118.475C132.102 118.475 131.772 118.57 131.495 118.762C131.221 118.949 131.011 119.219 130.862 119.57C130.718 119.922 130.645 120.344 130.645 120.836V120.848C130.645 121.336 130.718 121.758 130.862 122.113C131.011 122.465 131.221 122.736 131.495 122.928C131.772 123.115 132.102 123.209 132.485 123.209ZM139.994 124V115.545H141.048V124H139.994ZM142.676 124V117.684H143.695V118.645H143.789C143.93 118.305 144.145 118.041 144.434 117.854C144.727 117.666 145.08 117.572 145.494 117.572C145.779 117.572 146.035 117.619 146.262 117.713C146.488 117.807 146.684 117.938 146.848 118.105C147.012 118.27 147.143 118.461 147.24 118.68H147.334C147.447 118.457 147.6 118.264 147.791 118.1C147.982 117.932 148.203 117.803 148.453 117.713C148.707 117.619 148.979 117.572 149.268 117.572C149.697 117.572 150.061 117.652 150.357 117.812C150.658 117.973 150.887 118.207 151.043 118.516C151.199 118.82 151.277 119.193 151.277 119.635V124H150.258V119.869C150.258 119.557 150.209 119.299 150.111 119.096C150.018 118.889 149.873 118.734 149.678 118.633C149.482 118.527 149.236 118.475 148.939 118.475C148.646 118.475 148.391 118.541 148.172 118.674C147.953 118.807 147.783 118.984 147.662 119.207C147.541 119.426 147.48 119.67 147.48 119.939V124H146.461V119.711C146.461 119.461 146.406 119.244 146.297 119.061C146.191 118.873 146.039 118.729 145.84 118.627C145.645 118.525 145.414 118.475 145.148 118.475C144.875 118.475 144.627 118.547 144.404 118.691C144.186 118.836 144.012 119.031 143.883 119.277C143.758 119.52 143.695 119.789 143.695 120.086V124H142.676ZM154.452 124.111C154.053 124.111 153.694 124.035 153.373 123.883C153.057 123.73 152.805 123.514 152.618 123.232C152.434 122.951 152.342 122.619 152.342 122.236V122.225C152.342 121.85 152.432 121.529 152.612 121.264C152.791 120.994 153.053 120.783 153.397 120.631C153.741 120.479 154.157 120.389 154.645 120.361L156.965 120.221V121.035L154.768 121.176C154.287 121.203 153.936 121.303 153.713 121.475C153.495 121.646 153.385 121.889 153.385 122.201V122.213C153.385 122.533 153.506 122.783 153.748 122.963C153.991 123.139 154.295 123.227 154.662 123.227C155.01 123.227 155.319 123.158 155.588 123.021C155.858 122.881 156.069 122.691 156.221 122.453C156.377 122.215 156.455 121.945 156.455 121.645V119.676C156.455 119.285 156.336 118.988 156.098 118.785C155.864 118.578 155.51 118.475 155.037 118.475C154.659 118.475 154.348 118.543 154.106 118.68C153.864 118.812 153.702 119.002 153.62 119.248L153.614 119.266H152.594L152.6 119.23C152.655 118.898 152.791 118.609 153.01 118.363C153.233 118.113 153.52 117.92 153.871 117.783C154.223 117.643 154.623 117.572 155.073 117.572C155.588 117.572 156.024 117.656 156.379 117.824C156.739 117.992 157.01 118.234 157.194 118.551C157.381 118.863 157.475 119.238 157.475 119.676V124H156.455V123.068H156.362C156.229 123.291 156.067 123.48 155.875 123.637C155.688 123.793 155.475 123.912 155.237 123.994C154.998 124.072 154.737 124.111 154.452 124.111ZM161.54 126.227C161.032 126.227 160.589 126.154 160.21 126.01C159.831 125.869 159.528 125.668 159.302 125.406C159.079 125.148 158.94 124.848 158.886 124.504L158.897 124.498H159.952L159.958 124.504C160.013 124.742 160.177 124.938 160.45 125.09C160.723 125.246 161.087 125.324 161.54 125.324C162.106 125.324 162.548 125.195 162.864 124.938C163.184 124.684 163.345 124.324 163.345 123.859V122.582H163.251C163.118 122.812 162.952 123.01 162.753 123.174C162.554 123.338 162.329 123.463 162.079 123.549C161.829 123.631 161.559 123.672 161.27 123.672C160.727 123.672 160.257 123.543 159.858 123.285C159.464 123.023 159.159 122.664 158.944 122.207C158.729 121.75 158.622 121.227 158.622 120.637V120.625C158.622 120.035 158.729 119.512 158.944 119.055C159.163 118.594 159.471 118.232 159.87 117.971C160.268 117.705 160.743 117.572 161.294 117.572C161.591 117.572 161.864 117.619 162.114 117.713C162.364 117.807 162.585 117.939 162.776 118.111C162.971 118.283 163.134 118.488 163.263 118.727H163.333V117.684H164.352V123.912C164.352 124.381 164.237 124.789 164.007 125.137C163.78 125.484 163.456 125.752 163.034 125.939C162.612 126.131 162.114 126.227 161.54 126.227ZM161.493 122.77C161.884 122.77 162.218 122.68 162.495 122.5C162.776 122.316 162.991 122.064 163.139 121.744C163.292 121.424 163.368 121.055 163.368 120.637V120.625C163.368 120.207 163.292 119.836 163.139 119.512C162.991 119.188 162.776 118.934 162.495 118.75C162.218 118.566 161.884 118.475 161.493 118.475C161.102 118.475 160.77 118.566 160.497 118.75C160.227 118.934 160.02 119.188 159.876 119.512C159.735 119.836 159.665 120.207 159.665 120.625V120.637C159.665 121.055 159.735 121.424 159.876 121.744C160.02 122.064 160.227 122.316 160.497 122.5C160.77 122.68 161.102 122.77 161.493 122.77ZM168.429 124.111C167.827 124.111 167.31 123.979 166.876 123.713C166.446 123.447 166.114 123.072 165.88 122.588C165.65 122.1 165.534 121.525 165.534 120.865V120.859C165.534 120.207 165.65 119.635 165.88 119.143C166.114 118.65 166.445 118.266 166.87 117.988C167.296 117.711 167.794 117.572 168.364 117.572C168.939 117.572 169.431 117.705 169.841 117.971C170.255 118.236 170.571 118.607 170.79 119.084C171.013 119.557 171.124 120.107 171.124 120.736V121.135H166.062V120.32H170.603L170.099 121.064V120.66C170.099 120.164 170.025 119.756 169.876 119.436C169.728 119.115 169.523 118.877 169.261 118.721C168.999 118.561 168.698 118.48 168.359 118.48C168.019 118.48 167.714 118.564 167.445 118.732C167.179 118.896 166.968 119.141 166.812 119.465C166.655 119.789 166.577 120.188 166.577 120.66V121.064C166.577 121.514 166.654 121.898 166.806 122.219C166.958 122.535 167.175 122.779 167.456 122.951C167.737 123.119 168.07 123.203 168.452 123.203C168.737 123.203 168.986 123.164 169.196 123.086C169.407 123.008 169.581 122.908 169.718 122.787C169.855 122.666 169.95 122.543 170.005 122.418L170.029 122.365H171.048L171.036 122.412C170.982 122.627 170.884 122.836 170.743 123.039C170.607 123.238 170.429 123.42 170.21 123.584C169.991 123.744 169.732 123.873 169.431 123.971C169.134 124.064 168.8 124.111 168.429 124.111ZM177.877 124.111C177.279 124.111 176.762 123.98 176.324 123.719C175.891 123.453 175.555 123.076 175.316 122.588C175.082 122.1 174.965 121.52 174.965 120.848V120.836C174.965 120.16 175.082 119.578 175.316 119.09C175.555 118.602 175.891 118.227 176.324 117.965C176.762 117.703 177.279 117.572 177.877 117.572C178.479 117.572 178.996 117.703 179.43 117.965C179.863 118.227 180.197 118.602 180.432 119.09C180.67 119.578 180.789 120.16 180.789 120.836V120.848C180.789 121.52 180.67 122.1 180.432 122.588C180.197 123.076 179.863 123.453 179.43 123.719C178.996 123.98 178.479 124.111 177.877 124.111ZM177.877 123.209C178.275 123.209 178.613 123.115 178.891 122.928C179.168 122.74 179.379 122.471 179.523 122.119C179.672 121.768 179.746 121.344 179.746 120.848V120.836C179.746 120.336 179.672 119.91 179.523 119.559C179.379 119.207 179.168 118.939 178.891 118.756C178.613 118.568 178.275 118.475 177.877 118.475C177.479 118.475 177.141 118.568 176.863 118.756C176.586 118.939 176.373 119.207 176.225 119.559C176.08 119.91 176.008 120.336 176.008 120.836V120.848C176.008 121.344 176.08 121.768 176.225 122.119C176.373 122.471 176.586 122.74 176.863 122.928C177.141 123.115 177.479 123.209 177.877 123.209ZM182.393 124V118.527H181.344V117.684H182.393V116.98C182.393 116.559 182.461 116.211 182.598 115.938C182.739 115.66 182.946 115.455 183.219 115.322C183.493 115.186 183.829 115.117 184.227 115.117C184.352 115.117 184.469 115.123 184.579 115.135C184.692 115.143 184.801 115.156 184.907 115.176V115.99C184.844 115.979 184.772 115.971 184.69 115.967C184.608 115.963 184.522 115.961 184.432 115.961C184.069 115.961 183.807 116.049 183.647 116.225C183.491 116.4 183.412 116.662 183.412 117.01V117.684H184.848V118.527H183.412V124H182.393ZM189.55 120.982V120.045H191.941C192.546 120.045 193.015 119.889 193.347 119.576C193.679 119.26 193.845 118.824 193.845 118.27V118.258C193.845 117.699 193.679 117.264 193.347 116.951C193.015 116.639 192.546 116.482 191.941 116.482H189.55V115.545H192.21C192.741 115.545 193.21 115.658 193.616 115.885C194.023 116.111 194.341 116.428 194.571 116.834C194.806 117.24 194.923 117.711 194.923 118.246V118.258C194.923 118.793 194.806 119.266 194.571 119.676C194.341 120.086 194.023 120.406 193.616 120.637C193.21 120.867 192.741 120.982 192.21 120.982H189.55ZM189.023 124V115.545H190.077V124H189.023ZM196.123 124V117.684H197.142V118.621H197.236C197.357 118.289 197.562 118.031 197.851 117.848C198.14 117.664 198.498 117.572 198.923 117.572C199.021 117.572 199.117 117.578 199.211 117.59C199.308 117.598 199.382 117.605 199.433 117.613V118.604C199.328 118.584 199.224 118.57 199.123 118.562C199.025 118.551 198.92 118.545 198.806 118.545C198.482 118.545 198.195 118.609 197.945 118.738C197.695 118.867 197.498 119.047 197.353 119.277C197.213 119.508 197.142 119.777 197.142 120.086V124H196.123ZM202.713 124.111C202.115 124.111 201.598 123.98 201.16 123.719C200.727 123.453 200.391 123.076 200.152 122.588C199.918 122.1 199.801 121.52 199.801 120.848V120.836C199.801 120.16 199.918 119.578 200.152 119.09C200.391 118.602 200.727 118.227 201.16 117.965C201.598 117.703 202.115 117.572 202.713 117.572C203.314 117.572 203.832 117.703 204.266 117.965C204.699 118.227 205.033 118.602 205.268 119.09C205.506 119.578 205.625 120.16 205.625 120.836V120.848C205.625 121.52 205.506 122.1 205.268 122.588C205.033 123.076 204.699 123.453 204.266 123.719C203.832 123.98 203.314 124.111 202.713 124.111ZM202.713 123.209C203.111 123.209 203.449 123.115 203.727 122.928C204.004 122.74 204.215 122.471 204.359 122.119C204.508 121.768 204.582 121.344 204.582 120.848V120.836C204.582 120.336 204.508 119.91 204.359 119.559C204.215 119.207 204.004 118.939 203.727 118.756C203.449 118.568 203.111 118.475 202.713 118.475C202.314 118.475 201.977 118.568 201.699 118.756C201.422 118.939 201.209 119.207 201.061 119.559C200.916 119.91 200.844 120.336 200.844 120.836V120.848C200.844 121.344 200.916 121.768 201.061 122.119C201.209 122.471 201.422 122.74 201.699 122.928C201.977 123.115 202.314 123.209 202.713 123.209ZM206.807 126.109V117.684H207.827V118.691H207.92C208.049 118.457 208.211 118.258 208.407 118.094C208.602 117.926 208.825 117.797 209.075 117.707C209.325 117.617 209.596 117.572 209.889 117.572C210.424 117.572 210.889 117.709 211.284 117.982C211.682 118.252 211.991 118.631 212.209 119.119C212.428 119.607 212.537 120.18 212.537 120.836V120.848C212.537 121.508 212.428 122.082 212.209 122.57C211.991 123.059 211.682 123.438 211.284 123.707C210.889 123.977 210.424 124.111 209.889 124.111C209.6 124.111 209.327 124.066 209.069 123.977C208.815 123.883 208.588 123.754 208.389 123.59C208.194 123.426 208.037 123.23 207.92 123.004H207.827V126.109H206.807ZM209.655 123.209C210.041 123.209 210.371 123.115 210.645 122.928C210.918 122.736 211.127 122.465 211.272 122.113C211.42 121.758 211.495 121.336 211.495 120.848V120.836C211.495 120.344 211.42 119.922 211.272 119.57C211.127 119.219 210.918 118.949 210.645 118.762C210.371 118.57 210.041 118.475 209.655 118.475C209.272 118.475 208.942 118.57 208.664 118.762C208.387 118.953 208.174 119.225 208.026 119.576C207.877 119.928 207.803 120.348 207.803 120.836V120.848C207.803 121.332 207.877 121.752 208.026 122.107C208.174 122.459 208.387 122.73 208.664 122.922C208.942 123.113 209.272 123.209 209.655 123.209ZM216.309 124.111C215.708 124.111 215.19 123.979 214.757 123.713C214.327 123.447 213.995 123.072 213.761 122.588C213.53 122.1 213.415 121.525 213.415 120.865V120.859C213.415 120.207 213.53 119.635 213.761 119.143C213.995 118.65 214.325 118.266 214.751 117.988C215.177 117.711 215.675 117.572 216.245 117.572C216.819 117.572 217.311 117.705 217.721 117.971C218.136 118.236 218.452 118.607 218.671 119.084C218.893 119.557 219.005 120.107 219.005 120.736V121.135H213.942V120.32H218.483L217.979 121.064V120.66C217.979 120.164 217.905 119.756 217.757 119.436C217.608 119.115 217.403 118.877 217.141 118.721C216.88 118.561 216.579 118.48 216.239 118.48C215.899 118.48 215.595 118.564 215.325 118.732C215.059 118.896 214.848 119.141 214.692 119.465C214.536 119.789 214.458 120.188 214.458 120.66V121.064C214.458 121.514 214.534 121.898 214.686 122.219C214.839 122.535 215.055 122.779 215.337 122.951C215.618 123.119 215.95 123.203 216.333 123.203C216.618 123.203 216.866 123.164 217.077 123.086C217.288 123.008 217.462 122.908 217.598 122.787C217.735 122.666 217.831 122.543 217.886 122.418L217.909 122.365H218.929L218.917 122.412C218.862 122.627 218.764 122.836 218.624 123.039C218.487 123.238 218.309 123.42 218.091 123.584C217.872 123.744 217.612 123.873 217.311 123.971C217.014 124.064 216.68 124.111 216.309 124.111ZM220.187 124V117.684H221.206V118.621H221.3C221.421 118.289 221.626 118.031 221.915 117.848C222.204 117.664 222.562 117.572 222.988 117.572C223.085 117.572 223.181 117.578 223.275 117.59C223.372 117.598 223.446 117.605 223.497 117.613V118.604C223.392 118.584 223.288 118.57 223.187 118.562C223.089 118.551 222.984 118.545 222.87 118.545C222.546 118.545 222.259 118.609 222.009 118.738C221.759 118.867 221.562 119.047 221.417 119.277C221.277 119.508 221.206 119.777 221.206 120.086V124H220.187ZM226.718 124.047C226.07 124.047 225.599 123.916 225.306 123.654C225.017 123.393 224.873 122.961 224.873 122.359V118.527H223.877V117.684H224.873V116.049H225.927V117.684H227.31V118.527H225.927V122.102C225.927 122.473 225.998 122.74 226.138 122.904C226.279 123.064 226.513 123.145 226.841 123.145C226.931 123.145 227.007 123.143 227.07 123.139C227.136 123.135 227.216 123.129 227.31 123.121V123.988C227.213 124.004 227.115 124.018 227.017 124.029C226.92 124.041 226.82 124.047 226.718 124.047ZM228.973 126.215C228.906 126.215 228.832 126.211 228.75 126.203C228.668 126.199 228.592 126.191 228.521 126.18V125.342C228.584 125.354 228.652 125.361 228.727 125.365C228.801 125.369 228.873 125.371 228.943 125.371C229.232 125.371 229.469 125.297 229.652 125.148C229.84 125 229.99 124.744 230.104 124.381L230.221 124.006L227.883 117.684H228.973L230.918 123.52L230.514 122.881H230.994L230.59 123.52L232.529 117.684H233.602L231.135 124.387C230.963 124.859 230.781 125.229 230.59 125.494C230.398 125.76 230.174 125.945 229.916 126.051C229.662 126.16 229.348 126.215 228.973 126.215Z" fill="#D69FF8"/>
</svg>
