<svg width="347" height="184" viewBox="0 0 347 184" fill="none" xmlns="http://www.w3.org/2000/svg">
<rect x="1" y="1" width="345" height="182" rx="12" fill="#FAF4FE" stroke="#00005B" stroke-dasharray="6 6"/>
<path fill-rule="evenodd" clip-rule="evenodd" d="M184.598 75.6624C184.598 76.7862 185.498 77.6852 186.623 77.6852C187.748 77.6852 188.67 76.7862 188.67 75.6624C188.67 74.5387 187.748 73.6172 186.623 73.6172C185.498 73.6172 184.598 74.5387 184.598 75.6624ZM180.233 89.2374C178.635 90.8331 176.43 91.822 174 91.822C171.638 91.822 169.433 90.9005 167.745 89.2374C166.08 87.5517 165.158 85.3492 165.158 82.9893C165.135 80.6519 166.058 78.4493 167.723 76.7637C169.41 75.0781 171.638 74.1566 174 74.1566C176.363 74.1566 178.59 75.0781 180.255 76.7412C181.92 78.4269 182.843 80.6519 182.843 82.9893C182.82 85.4391 181.83 87.6416 180.233 89.2374ZM174 77.5278C172.538 77.5278 171.165 78.0897 170.108 79.146C169.073 80.1799 168.51 81.5508 168.533 82.9668V82.9892C168.533 84.4501 169.095 85.8211 170.13 86.8549C171.165 87.8888 172.538 88.4507 174 88.4507C177.015 88.4507 179.445 86.0009 179.468 82.9892C179.468 81.5284 178.905 80.1574 177.87 79.1235C176.835 78.0897 175.463 77.5278 174 77.5278Z" fill="#00005B"/>
<path opacity="0.4" d="M186.24 67.0319L186.015 66.5375C185.408 65.2564 184.71 63.773 184.283 62.919C183.247 60.8962 181.47 59.7725 179.288 59.75H168.69C166.507 59.7725 164.752 60.8962 163.717 62.919C163.267 63.818 162.503 65.4362 161.873 66.7622L161.738 67.0319C161.67 67.2117 161.49 67.3016 161.31 67.3016C155.888 67.3016 151.5 71.7067 151.5 77.1007V90.4509C151.5 95.8449 155.888 100.25 161.31 100.25H186.69C192.09 100.25 196.5 95.8449 196.5 90.4509V77.1007C196.5 71.7067 192.09 67.3016 186.69 67.3016C186.487 67.3016 186.33 67.1892 186.24 67.0319Z" fill="#00005B"/>
<path d="M119.621 124L122.739 115.545H123.547V116.91H123.213L120.729 124H119.621ZM121.034 121.58L121.362 120.684H125.182L125.51 121.58H121.034ZM125.791 124L123.307 116.91V115.545H123.782L126.899 124H125.791ZM129.833 124.111C129.302 124.111 128.837 123.977 128.438 123.707C128.04 123.438 127.731 123.059 127.512 122.57C127.294 122.078 127.184 121.504 127.184 120.848V120.836C127.184 120.176 127.294 119.602 127.512 119.113C127.731 118.625 128.038 118.246 128.432 117.977C128.831 117.707 129.298 117.572 129.833 117.572C130.122 117.572 130.393 117.619 130.647 117.713C130.905 117.803 131.134 117.93 131.333 118.094C131.532 118.258 131.688 118.453 131.802 118.68H131.895V115.176H132.915V124H131.895V122.992H131.802C131.673 123.227 131.511 123.428 131.315 123.596C131.12 123.76 130.897 123.887 130.647 123.977C130.397 124.066 130.126 124.111 129.833 124.111ZM130.067 123.209C130.45 123.209 130.78 123.113 131.057 122.922C131.335 122.73 131.548 122.459 131.696 122.107C131.845 121.752 131.919 121.332 131.919 120.848V120.836C131.919 120.348 131.845 119.928 131.696 119.576C131.548 119.225 131.335 118.953 131.057 118.762C130.78 118.57 130.45 118.475 130.067 118.475C129.684 118.475 129.354 118.57 129.077 118.762C128.804 118.949 128.593 119.219 128.444 119.57C128.3 119.922 128.227 120.344 128.227 120.836V120.848C128.227 121.336 128.3 121.758 128.444 122.113C128.593 122.465 128.804 122.736 129.077 122.928C129.354 123.115 129.684 123.209 130.067 123.209ZM136.804 124.111C136.273 124.111 135.808 123.977 135.409 123.707C135.011 123.438 134.702 123.059 134.484 122.57C134.265 122.078 134.155 121.504 134.155 120.848V120.836C134.155 120.176 134.265 119.602 134.484 119.113C134.702 118.625 135.009 118.246 135.404 117.977C135.802 117.707 136.269 117.572 136.804 117.572C137.093 117.572 137.364 117.619 137.618 117.713C137.876 117.803 138.105 117.93 138.304 118.094C138.503 118.258 138.659 118.453 138.773 118.68H138.866V115.176H139.886V124H138.866V122.992H138.773C138.644 123.227 138.482 123.428 138.286 123.596C138.091 123.76 137.868 123.887 137.618 123.977C137.368 124.066 137.097 124.111 136.804 124.111ZM137.038 123.209C137.421 123.209 137.751 123.113 138.029 122.922C138.306 122.73 138.519 122.459 138.667 122.107C138.816 121.752 138.89 121.332 138.89 120.848V120.836C138.89 120.348 138.816 119.928 138.667 119.576C138.519 119.225 138.306 118.953 138.029 118.762C137.751 118.57 137.421 118.475 137.038 118.475C136.655 118.475 136.325 118.57 136.048 118.762C135.775 118.949 135.564 119.219 135.415 119.57C135.271 119.922 135.198 120.344 135.198 120.836V120.848C135.198 121.336 135.271 121.758 135.415 122.113C135.564 122.465 135.775 122.736 136.048 122.928C136.325 123.115 136.655 123.209 137.038 123.209ZM144.547 124V115.545H145.602V124H144.547ZM147.229 124V117.684H148.248V118.645H148.342C148.483 118.305 148.698 118.041 148.987 117.854C149.28 117.666 149.633 117.572 150.047 117.572C150.332 117.572 150.588 117.619 150.815 117.713C151.041 117.807 151.237 117.938 151.401 118.105C151.565 118.27 151.696 118.461 151.793 118.68H151.887C152 118.457 152.153 118.264 152.344 118.1C152.536 117.932 152.756 117.803 153.006 117.713C153.26 117.619 153.532 117.572 153.821 117.572C154.25 117.572 154.614 117.652 154.911 117.812C155.211 117.973 155.44 118.207 155.596 118.516C155.752 118.82 155.83 119.193 155.83 119.635V124H154.811V119.869C154.811 119.557 154.762 119.299 154.664 119.096C154.571 118.889 154.426 118.734 154.231 118.633C154.036 118.527 153.789 118.475 153.493 118.475C153.2 118.475 152.944 118.541 152.725 118.674C152.506 118.807 152.336 118.984 152.215 119.207C152.094 119.426 152.034 119.67 152.034 119.939V124H151.014V119.711C151.014 119.461 150.959 119.244 150.85 119.061C150.745 118.873 150.592 118.729 150.393 118.627C150.198 118.525 149.967 118.475 149.702 118.475C149.428 118.475 149.18 118.547 148.957 118.691C148.739 118.836 148.565 119.031 148.436 119.277C148.311 119.52 148.248 119.789 148.248 120.086V124H147.229ZM159.005 124.111C158.606 124.111 158.247 124.035 157.927 123.883C157.61 123.73 157.358 123.514 157.171 123.232C156.987 122.951 156.895 122.619 156.895 122.236V122.225C156.895 121.85 156.985 121.529 157.165 121.264C157.345 120.994 157.606 120.783 157.95 120.631C158.294 120.479 158.71 120.389 159.198 120.361L161.518 120.221V121.035L159.321 121.176C158.841 121.203 158.489 121.303 158.266 121.475C158.048 121.646 157.938 121.889 157.938 122.201V122.213C157.938 122.533 158.059 122.783 158.302 122.963C158.544 123.139 158.848 123.227 159.216 123.227C159.563 123.227 159.872 123.158 160.141 123.021C160.411 122.881 160.622 122.691 160.774 122.453C160.93 122.215 161.009 121.945 161.009 121.645V119.676C161.009 119.285 160.889 118.988 160.651 118.785C160.417 118.578 160.063 118.475 159.591 118.475C159.212 118.475 158.901 118.543 158.659 118.68C158.417 118.812 158.255 119.002 158.173 119.248L158.167 119.266H157.147L157.153 119.23C157.208 118.898 157.345 118.609 157.563 118.363C157.786 118.113 158.073 117.92 158.425 117.783C158.776 117.643 159.177 117.572 159.626 117.572C160.141 117.572 160.577 117.656 160.932 117.824C161.292 117.992 161.563 118.234 161.747 118.551C161.934 118.863 162.028 119.238 162.028 119.676V124H161.009V123.068H160.915C160.782 123.291 160.62 123.48 160.429 123.637C160.241 123.793 160.028 123.912 159.79 123.994C159.552 124.072 159.29 124.111 159.005 124.111ZM166.093 126.227C165.585 126.227 165.142 126.154 164.763 126.01C164.384 125.869 164.081 125.668 163.855 125.406C163.632 125.148 163.493 124.848 163.439 124.504L163.45 124.498H164.505L164.511 124.504C164.566 124.742 164.73 124.938 165.003 125.09C165.277 125.246 165.64 125.324 166.093 125.324C166.659 125.324 167.101 125.195 167.417 124.938C167.737 124.684 167.898 124.324 167.898 123.859V122.582H167.804C167.671 122.812 167.505 123.01 167.306 123.174C167.107 123.338 166.882 123.463 166.632 123.549C166.382 123.631 166.112 123.672 165.823 123.672C165.28 123.672 164.81 123.543 164.411 123.285C164.017 123.023 163.712 122.664 163.497 122.207C163.282 121.75 163.175 121.227 163.175 120.637V120.625C163.175 120.035 163.282 119.512 163.497 119.055C163.716 118.594 164.025 118.232 164.423 117.971C164.821 117.705 165.296 117.572 165.847 117.572C166.144 117.572 166.417 117.619 166.667 117.713C166.917 117.807 167.138 117.939 167.329 118.111C167.525 118.283 167.687 118.488 167.816 118.727H167.886V117.684H168.905V123.912C168.905 124.381 168.79 124.789 168.56 125.137C168.333 125.484 168.009 125.752 167.587 125.939C167.165 126.131 166.667 126.227 166.093 126.227ZM166.046 122.77C166.437 122.77 166.771 122.68 167.048 122.5C167.329 122.316 167.544 122.064 167.693 121.744C167.845 121.424 167.921 121.055 167.921 120.637V120.625C167.921 120.207 167.845 119.836 167.693 119.512C167.544 119.188 167.329 118.934 167.048 118.75C166.771 118.566 166.437 118.475 166.046 118.475C165.655 118.475 165.323 118.566 165.05 118.75C164.78 118.934 164.573 119.188 164.429 119.512C164.288 119.836 164.218 120.207 164.218 120.625V120.637C164.218 121.055 164.288 121.424 164.429 121.744C164.573 122.064 164.78 122.316 165.05 122.5C165.323 122.68 165.655 122.77 166.046 122.77ZM172.982 124.111C172.38 124.111 171.863 123.979 171.429 123.713C171 123.447 170.668 123.072 170.433 122.588C170.203 122.1 170.087 121.525 170.087 120.865V120.859C170.087 120.207 170.203 119.635 170.433 119.143C170.668 118.65 170.998 118.266 171.423 117.988C171.849 117.711 172.347 117.572 172.918 117.572C173.492 117.572 173.984 117.705 174.394 117.971C174.808 118.236 175.125 118.607 175.343 119.084C175.566 119.557 175.677 120.107 175.677 120.736V121.135H170.615V120.32H175.156L174.652 121.064V120.66C174.652 120.164 174.578 119.756 174.429 119.436C174.281 119.115 174.076 118.877 173.814 118.721C173.552 118.561 173.252 118.48 172.912 118.48C172.572 118.48 172.267 118.564 171.998 118.732C171.732 118.896 171.521 119.141 171.365 119.465C171.209 119.789 171.13 120.188 171.13 120.66V121.064C171.13 121.514 171.207 121.898 171.359 122.219C171.511 122.535 171.728 122.779 172.009 122.951C172.291 123.119 172.623 123.203 173.005 123.203C173.291 123.203 173.539 123.164 173.75 123.086C173.961 123.008 174.134 122.908 174.271 122.787C174.408 122.666 174.504 122.543 174.558 122.418L174.582 122.365H175.601L175.589 122.412C175.535 122.627 175.437 122.836 175.296 123.039C175.16 123.238 174.982 123.42 174.763 123.584C174.545 123.744 174.285 123.873 173.984 123.971C173.687 124.064 173.353 124.111 172.982 124.111ZM182.43 124.111C181.832 124.111 181.315 123.98 180.877 123.719C180.444 123.453 180.108 123.076 179.87 122.588C179.635 122.1 179.518 121.52 179.518 120.848V120.836C179.518 120.16 179.635 119.578 179.87 119.09C180.108 118.602 180.444 118.227 180.877 117.965C181.315 117.703 181.832 117.572 182.43 117.572C183.032 117.572 183.549 117.703 183.983 117.965C184.416 118.227 184.75 118.602 184.985 119.09C185.223 119.578 185.342 120.16 185.342 120.836V120.848C185.342 121.52 185.223 122.1 184.985 122.588C184.75 123.076 184.416 123.453 183.983 123.719C183.549 123.98 183.032 124.111 182.43 124.111ZM182.43 123.209C182.829 123.209 183.166 123.115 183.444 122.928C183.721 122.74 183.932 122.471 184.077 122.119C184.225 121.768 184.299 121.344 184.299 120.848V120.836C184.299 120.336 184.225 119.91 184.077 119.559C183.932 119.207 183.721 118.939 183.444 118.756C183.166 118.568 182.829 118.475 182.43 118.475C182.032 118.475 181.694 118.568 181.416 118.756C181.139 118.939 180.926 119.207 180.778 119.559C180.633 119.91 180.561 120.336 180.561 120.836V120.848C180.561 121.344 180.633 121.768 180.778 122.119C180.926 122.471 181.139 122.74 181.416 122.928C181.694 123.115 182.032 123.209 182.43 123.209ZM186.946 124V118.527H185.897V117.684H186.946V116.98C186.946 116.559 187.014 116.211 187.151 115.938C187.292 115.66 187.499 115.455 187.772 115.322C188.046 115.186 188.382 115.117 188.78 115.117C188.905 115.117 189.022 115.123 189.132 115.135C189.245 115.143 189.354 115.156 189.46 115.176V115.99C189.397 115.979 189.325 115.971 189.243 115.967C189.161 115.963 189.075 115.961 188.985 115.961C188.622 115.961 188.36 116.049 188.2 116.225C188.044 116.4 187.966 116.662 187.966 117.01V117.684H189.401V118.527H187.966V124H186.946ZM195.773 124V116.494H193.048V115.545H199.552V116.494H196.828V124H195.773ZM202.059 124.111C201.457 124.111 200.939 123.979 200.506 123.713C200.076 123.447 199.744 123.072 199.51 122.588C199.279 122.1 199.164 121.525 199.164 120.865V120.859C199.164 120.207 199.279 119.635 199.51 119.143C199.744 118.65 200.074 118.266 200.5 117.988C200.926 117.711 201.424 117.572 201.994 117.572C202.568 117.572 203.061 117.705 203.471 117.971C203.885 118.236 204.201 118.607 204.42 119.084C204.643 119.557 204.754 120.107 204.754 120.736V121.135H199.691V120.32H204.232L203.729 121.064V120.66C203.729 120.164 203.654 119.756 203.506 119.436C203.357 119.115 203.152 118.877 202.891 118.721C202.629 118.561 202.328 118.48 201.988 118.48C201.648 118.48 201.344 118.564 201.074 118.732C200.809 118.896 200.598 119.141 200.441 119.465C200.285 119.789 200.207 120.188 200.207 120.66V121.064C200.207 121.514 200.283 121.898 200.436 122.219C200.588 122.535 200.805 122.779 201.086 122.951C201.367 123.119 201.699 123.203 202.082 123.203C202.367 123.203 202.615 123.164 202.826 123.086C203.037 123.008 203.211 122.908 203.348 122.787C203.484 122.666 203.58 122.543 203.635 122.418L203.658 122.365H204.678L204.666 122.412C204.611 122.627 204.514 122.836 204.373 123.039C204.236 123.238 204.059 123.42 203.84 123.584C203.621 123.744 203.361 123.873 203.061 123.971C202.764 124.064 202.43 124.111 202.059 124.111ZM205.936 124V117.684H206.955V118.633H207.049C207.209 118.297 207.44 118.037 207.741 117.854C208.041 117.666 208.424 117.572 208.889 117.572C209.6 117.572 210.145 117.775 210.524 118.182C210.907 118.584 211.098 119.16 211.098 119.91V124H210.079V120.156C210.079 119.586 209.957 119.164 209.715 118.891C209.477 118.613 209.106 118.475 208.602 118.475C208.266 118.475 207.975 118.547 207.729 118.691C207.483 118.836 207.291 119.041 207.155 119.307C207.022 119.572 206.955 119.891 206.955 120.262V124H205.936ZM214.278 124.111C213.88 124.111 213.52 124.035 213.2 123.883C212.884 123.73 212.632 123.514 212.444 123.232C212.261 122.951 212.169 122.619 212.169 122.236V122.225C212.169 121.85 212.259 121.529 212.438 121.264C212.618 120.994 212.88 120.783 213.223 120.631C213.567 120.479 213.983 120.389 214.471 120.361L216.792 120.221V121.035L214.595 121.176C214.114 121.203 213.762 121.303 213.54 121.475C213.321 121.646 213.212 121.889 213.212 122.201V122.213C213.212 122.533 213.333 122.783 213.575 122.963C213.817 123.139 214.122 123.227 214.489 123.227C214.837 123.227 215.145 123.158 215.415 123.021C215.684 122.881 215.895 122.691 216.048 122.453C216.204 122.215 216.282 121.945 216.282 121.645V119.676C216.282 119.285 216.163 118.988 215.925 118.785C215.69 118.578 215.337 118.475 214.864 118.475C214.485 118.475 214.175 118.543 213.932 118.68C213.69 118.812 213.528 119.002 213.446 119.248L213.44 119.266H212.421L212.427 119.23C212.481 118.898 212.618 118.609 212.837 118.363C213.059 118.113 213.346 117.92 213.698 117.783C214.05 117.643 214.45 117.572 214.899 117.572C215.415 117.572 215.85 117.656 216.206 117.824C216.565 117.992 216.837 118.234 217.02 118.551C217.208 118.863 217.302 119.238 217.302 119.676V124H216.282V123.068H216.188C216.055 123.291 215.893 123.48 215.702 123.637C215.514 123.793 215.302 123.912 215.063 123.994C214.825 124.072 214.563 124.111 214.278 124.111ZM218.765 124V117.684H219.784V118.633H219.878C220.038 118.297 220.269 118.037 220.57 117.854C220.87 117.666 221.253 117.572 221.718 117.572C222.429 117.572 222.974 117.775 223.353 118.182C223.736 118.584 223.927 119.16 223.927 119.91V124H222.907V120.156C222.907 119.586 222.786 119.164 222.544 118.891C222.306 118.613 221.935 118.475 221.431 118.475C221.095 118.475 220.804 118.547 220.558 118.691C220.312 118.836 220.12 119.041 219.984 119.307C219.851 119.572 219.784 119.891 219.784 120.262V124H218.765ZM227.617 124.047C226.968 124.047 226.498 123.916 226.205 123.654C225.916 123.393 225.771 122.961 225.771 122.359V118.527H224.775V117.684H225.771V116.049H226.826V117.684H228.209V118.527H226.826V122.102C226.826 122.473 226.896 122.74 227.037 122.904C227.177 123.064 227.412 123.145 227.74 123.145C227.83 123.145 227.906 123.143 227.968 123.139C228.035 123.135 228.115 123.129 228.209 123.121V123.988C228.111 124.004 228.013 124.018 227.916 124.029C227.818 124.041 227.718 124.047 227.617 124.047Z" fill="#9692BD"/>
</svg>
