<svg width="347" height="122" viewBox="0 0 347 122" fill="none" xmlns="http://www.w3.org/2000/svg">
<rect x="1" y="1" width="345" height="120" rx="12" fill="#FAF4FE" stroke="#00005B" stroke-dasharray="6 6"/>
<path opacity="0.4" d="M189.32 36.2972C188.304 36.2972 186.958 36.2748 185.283 36.2748C181.197 36.2748 177.837 32.893 177.837 28.7688V21.5328C177.837 20.9635 177.381 20.5 176.819 20.5H164.918C159.364 20.5 154.875 25.0585 154.875 30.6452V54.889C154.875 60.7503 159.578 65.5 165.382 65.5H183.102C188.638 65.5 193.125 60.9707 193.125 55.3795V37.3097C193.125 36.7383 192.671 36.277 192.105 36.2793C191.156 36.286 190.013 36.2972 189.32 36.2972Z" fill="#00005B"/>
<path opacity="0.4" d="M183.19 21.7763C182.517 21.0766 181.342 21.5581 181.342 22.5278V28.4611C181.342 30.9496 183.392 32.9971 185.878 32.9971C187.449 33.0151 189.627 33.0196 191.476 33.0151C192.424 33.0128 192.905 31.8811 192.248 31.1971C189.874 28.7288 185.624 24.3053 183.19 21.7763Z" fill="#00005B"/>
<path d="M179.326 43.5316H175.438V39.6459C175.438 38.7211 174.689 37.9696 173.764 37.9696C172.84 37.9696 172.088 38.7211 172.088 39.6459V43.5316H168.202C167.278 43.5316 166.528 44.2831 166.528 45.2079C166.528 46.1326 167.278 46.8841 168.202 46.8841H172.088V50.7676C172.088 51.6924 172.84 52.4439 173.764 52.4439C174.689 52.4439 175.438 51.6924 175.438 50.7676V46.8841H179.326C180.251 46.8841 181.003 46.1326 181.003 45.2079C181.003 44.2831 180.251 43.5316 179.326 43.5316Z" fill="#00005B"/>
<path d="M131.699 87L134.816 78.5449H135.625V79.9102H135.291L132.806 87H131.699ZM133.111 84.5801L133.439 83.6836H137.259L137.588 84.5801H133.111ZM137.869 87L135.384 79.9102V78.5449H135.859L138.976 87H137.869ZM141.91 87.1113C141.379 87.1113 140.914 86.9766 140.516 86.707C140.117 86.4375 139.809 86.0586 139.59 85.5703C139.371 85.0781 139.262 84.5039 139.262 83.8477V83.8359C139.262 83.1758 139.371 82.6016 139.59 82.1133C139.809 81.625 140.115 81.2461 140.51 80.9766C140.908 80.707 141.375 80.5723 141.91 80.5723C142.199 80.5723 142.471 80.6191 142.725 80.7129C142.982 80.8027 143.211 80.9297 143.41 81.0938C143.609 81.2578 143.766 81.4531 143.879 81.6797H143.973V78.1758H144.992V87H143.973V85.9922H143.879C143.75 86.2266 143.588 86.4277 143.393 86.5957C143.197 86.7598 142.975 86.8867 142.725 86.9766C142.475 87.0664 142.203 87.1113 141.91 87.1113ZM142.145 86.209C142.527 86.209 142.857 86.1133 143.135 85.9219C143.412 85.7305 143.625 85.459 143.773 85.1074C143.922 84.752 143.996 84.332 143.996 83.8477V83.8359C143.996 83.3477 143.922 82.9277 143.773 82.5762C143.625 82.2246 143.412 81.9531 143.135 81.7617C142.857 81.5703 142.527 81.4746 142.145 81.4746C141.762 81.4746 141.432 81.5703 141.154 81.7617C140.881 81.9492 140.67 82.2188 140.521 82.5703C140.377 82.9219 140.305 83.3438 140.305 83.8359V83.8477C140.305 84.3359 140.377 84.7578 140.521 85.1133C140.67 85.4648 140.881 85.7363 141.154 85.9277C141.432 86.1152 141.762 86.209 142.145 86.209ZM148.881 87.1113C148.35 87.1113 147.885 86.9766 147.487 86.707C147.088 86.4375 146.78 86.0586 146.561 85.5703C146.342 85.0781 146.233 84.5039 146.233 83.8477V83.8359C146.233 83.1758 146.342 82.6016 146.561 82.1133C146.78 81.625 147.086 81.2461 147.481 80.9766C147.879 80.707 148.346 80.5723 148.881 80.5723C149.17 80.5723 149.442 80.6191 149.696 80.7129C149.954 80.8027 150.182 80.9297 150.381 81.0938C150.58 81.2578 150.737 81.4531 150.85 81.6797H150.944V78.1758H151.963V87H150.944V85.9922H150.85C150.721 86.2266 150.559 86.4277 150.364 86.5957C150.168 86.7598 149.946 86.8867 149.696 86.9766C149.446 87.0664 149.174 87.1113 148.881 87.1113ZM149.116 86.209C149.498 86.209 149.829 86.1133 150.106 85.9219C150.383 85.7305 150.596 85.459 150.745 85.1074C150.893 84.752 150.967 84.332 150.967 83.8477V83.8359C150.967 83.3477 150.893 82.9277 150.745 82.5762C150.596 82.2246 150.383 81.9531 150.106 81.7617C149.829 81.5703 149.498 81.4746 149.116 81.4746C148.733 81.4746 148.403 81.5703 148.125 81.7617C147.852 81.9492 147.641 82.2188 147.493 82.5703C147.348 82.9219 147.276 83.3438 147.276 83.8359V83.8477C147.276 84.3359 147.348 84.7578 147.493 85.1133C147.641 85.4648 147.852 85.7363 148.125 85.9277C148.403 86.1152 148.733 86.209 149.116 86.209ZM156.624 87V78.5449H159.525C160.361 78.5449 161.075 78.7129 161.669 79.0488C162.267 79.3809 162.724 79.8613 163.04 80.4902C163.357 81.1191 163.515 81.877 163.515 82.7637V82.7754C163.515 83.6621 163.357 84.4219 163.04 85.0547C162.724 85.6836 162.269 86.166 161.675 86.502C161.081 86.834 160.364 87 159.525 87H156.624ZM157.679 86.0508H159.454C160.083 86.0508 160.62 85.9219 161.066 85.6641C161.511 85.4062 161.851 85.0332 162.085 84.5449C162.32 84.0566 162.437 83.4707 162.437 82.7871V82.7754C162.437 82.0879 162.318 81.5 162.079 81.0117C161.845 80.5195 161.505 80.1445 161.06 79.8867C160.614 79.625 160.079 79.4941 159.454 79.4941H157.679V86.0508ZM167.41 87.1113C166.812 87.1113 166.295 86.9805 165.857 86.7188C165.423 86.4531 165.088 86.0762 164.849 85.5879C164.615 85.0996 164.498 84.5195 164.498 83.8477V83.8359C164.498 83.1602 164.615 82.5781 164.849 82.0898C165.088 81.6016 165.423 81.2266 165.857 80.9648C166.295 80.7031 166.812 80.5723 167.41 80.5723C168.011 80.5723 168.529 80.7031 168.963 80.9648C169.396 81.2266 169.73 81.6016 169.964 82.0898C170.203 82.5781 170.322 83.1602 170.322 83.8359V83.8477C170.322 84.5195 170.203 85.0996 169.964 85.5879C169.73 86.0762 169.396 86.4531 168.963 86.7188C168.529 86.9805 168.011 87.1113 167.41 87.1113ZM167.41 86.209C167.808 86.209 168.146 86.1152 168.423 85.9277C168.701 85.7402 168.912 85.4707 169.056 85.1191C169.205 84.7676 169.279 84.3438 169.279 83.8477V83.8359C169.279 83.3359 169.205 82.9102 169.056 82.5586C168.912 82.207 168.701 81.9395 168.423 81.7559C168.146 81.5684 167.808 81.4746 167.41 81.4746C167.011 81.4746 166.673 81.5684 166.396 81.7559C166.119 81.9395 165.906 82.207 165.757 82.5586C165.613 82.9102 165.541 83.3359 165.541 83.8359V83.8477C165.541 84.3438 165.613 84.7676 165.757 85.1191C165.906 85.4707 166.119 85.7402 166.396 85.9277C166.673 86.1152 167.011 86.209 167.41 86.209ZM174.088 87.1113C173.498 87.1113 172.986 86.9766 172.553 86.707C172.119 86.4375 171.783 86.0566 171.545 85.5645C171.307 85.0723 171.188 84.4922 171.188 83.8242V83.8125C171.188 83.1562 171.305 82.5859 171.539 82.1016C171.777 81.6172 172.113 81.2422 172.547 80.9766C172.98 80.707 173.492 80.5723 174.082 80.5723C174.594 80.5723 175.035 80.6621 175.406 80.8418C175.777 81.0215 176.074 81.2637 176.297 81.5684C176.52 81.8691 176.662 82.207 176.725 82.582L176.73 82.6172H175.717L175.711 82.5996C175.633 82.2871 175.455 82.0215 175.178 81.8027C174.9 81.584 174.535 81.4746 174.082 81.4746C173.703 81.4746 173.375 81.5703 173.098 81.7617C172.82 81.9531 172.605 82.2246 172.453 82.5762C172.305 82.9238 172.23 83.3359 172.23 83.8125V83.8242C172.23 84.3086 172.307 84.7305 172.459 85.0898C172.611 85.4453 172.826 85.7207 173.104 85.916C173.381 86.1113 173.707 86.209 174.082 86.209C174.508 86.209 174.855 86.1172 175.125 85.9336C175.395 85.75 175.588 85.4824 175.705 85.1309L175.717 85.0957L176.725 85.0898L176.713 85.1543C176.627 85.5332 176.475 85.8711 176.256 86.168C176.037 86.4609 175.748 86.6914 175.389 86.8594C175.029 87.0273 174.596 87.1113 174.088 87.1113ZM179.934 87.1113C179.457 87.1113 179.057 87.0215 178.733 86.8418C178.409 86.6582 178.164 86.3926 178 86.0449C177.84 85.6934 177.76 85.2695 177.76 84.7734V80.6836H178.78V84.5273C178.78 85.0938 178.889 85.5156 179.108 85.793C179.33 86.0703 179.694 86.209 180.198 86.209C180.475 86.209 180.719 86.168 180.93 86.0859C181.145 86.0039 181.325 85.8867 181.469 85.7344C181.614 85.5781 181.721 85.3906 181.791 85.1719C181.866 84.9492 181.903 84.6992 181.903 84.4219V80.6836H182.922V87H181.903V86.0566H181.809C181.707 86.2793 181.569 86.4707 181.393 86.6309C181.217 86.7871 181.006 86.9062 180.76 86.9883C180.518 87.0703 180.243 87.1113 179.934 87.1113ZM184.427 87V80.6836H185.446V81.6445H185.54C185.68 81.3047 185.895 81.041 186.184 80.8535C186.477 80.666 186.831 80.5723 187.245 80.5723C187.53 80.5723 187.786 80.6191 188.013 80.7129C188.239 80.8066 188.434 80.9375 188.598 81.1055C188.763 81.2695 188.893 81.4609 188.991 81.6797H189.085C189.198 81.457 189.35 81.2637 189.542 81.0996C189.733 80.9316 189.954 80.8027 190.204 80.7129C190.458 80.6191 190.729 80.5723 191.018 80.5723C191.448 80.5723 191.811 80.6523 192.108 80.8125C192.409 80.9727 192.638 81.207 192.794 81.5156C192.95 81.8203 193.028 82.1934 193.028 82.6348V87H192.009V82.8691C192.009 82.5566 191.96 82.2988 191.862 82.0957C191.768 81.8887 191.624 81.7344 191.429 81.6328C191.233 81.5273 190.987 81.4746 190.69 81.4746C190.397 81.4746 190.141 81.541 189.923 81.6738C189.704 81.8066 189.534 81.9844 189.413 82.207C189.292 82.4258 189.231 82.6699 189.231 82.9395V87H188.212V82.7109C188.212 82.4609 188.157 82.2441 188.048 82.0605C187.942 81.873 187.79 81.7285 187.591 81.627C187.395 81.5254 187.165 81.4746 186.899 81.4746C186.626 81.4746 186.378 81.5469 186.155 81.6914C185.936 81.8359 185.763 82.0312 185.634 82.2773C185.509 82.5195 185.446 82.7891 185.446 83.0859V87H184.427ZM197.046 87.1113C196.445 87.1113 195.927 86.9785 195.493 86.7129C195.064 86.4473 194.732 86.0723 194.497 85.5879C194.267 85.0996 194.152 84.5254 194.152 83.8652V83.8594C194.152 83.207 194.267 82.6348 194.497 82.1426C194.732 81.6504 195.062 81.2656 195.488 80.9883C195.913 80.7109 196.411 80.5723 196.982 80.5723C197.556 80.5723 198.048 80.7051 198.458 80.9707C198.872 81.2363 199.189 81.6074 199.407 82.084C199.63 82.5566 199.741 83.1074 199.741 83.7363V84.1348H194.679V83.3203H199.22L198.716 84.0645V83.6602C198.716 83.1641 198.642 82.7559 198.493 82.4355C198.345 82.1152 198.14 81.877 197.878 81.7207C197.616 81.5605 197.316 81.4805 196.976 81.4805C196.636 81.4805 196.331 81.5645 196.062 81.7324C195.796 81.8965 195.585 82.1406 195.429 82.4648C195.273 82.7891 195.195 83.1875 195.195 83.6602V84.0645C195.195 84.5137 195.271 84.8984 195.423 85.2188C195.575 85.5352 195.792 85.7793 196.073 85.9512C196.355 86.1191 196.687 86.2031 197.07 86.2031C197.355 86.2031 197.603 86.1641 197.814 86.0859C198.025 86.0078 198.198 85.9082 198.335 85.7871C198.472 85.666 198.568 85.543 198.622 85.418L198.646 85.3652H199.665L199.654 85.4121C199.599 85.627 199.501 85.8359 199.361 86.0391C199.224 86.2383 199.046 86.4199 198.827 86.584C198.609 86.7441 198.349 86.873 198.048 86.9707C197.751 87.0645 197.417 87.1113 197.046 87.1113ZM200.923 87V80.6836H201.943V81.6328H202.037C202.197 81.2969 202.427 81.0371 202.728 80.8535C203.029 80.666 203.412 80.5723 203.877 80.5723C204.588 80.5723 205.132 80.7754 205.511 81.1816C205.894 81.584 206.086 82.1602 206.086 82.9102V87H205.066V83.1562C205.066 82.5859 204.945 82.1641 204.703 81.8906C204.464 81.6133 204.093 81.4746 203.589 81.4746C203.254 81.4746 202.963 81.5469 202.716 81.6914C202.47 81.8359 202.279 82.041 202.142 82.3066C202.009 82.5723 201.943 82.8906 201.943 83.2617V87H200.923ZM209.775 87.0469C209.127 87.0469 208.656 86.916 208.363 86.6543C208.074 86.3926 207.93 85.9609 207.93 85.3594V81.5273H206.934V80.6836H207.93V79.0488H208.984V80.6836H210.367V81.5273H208.984V85.1016C208.984 85.4727 209.055 85.7402 209.195 85.9043C209.336 86.0645 209.57 86.1445 209.898 86.1445C209.988 86.1445 210.064 86.1426 210.127 86.1387C210.193 86.1348 210.273 86.1289 210.367 86.1211V86.9883C210.27 87.0039 210.172 87.0176 210.074 87.0293C209.977 87.041 209.877 87.0469 209.775 87.0469ZM213.541 87.1113C213.073 87.1113 212.659 87.041 212.299 86.9004C211.94 86.7559 211.651 86.5547 211.432 86.2969C211.217 86.0391 211.09 85.7363 211.051 85.3887H212.094C212.18 85.6504 212.348 85.8613 212.598 86.0215C212.848 86.1816 213.174 86.2617 213.577 86.2617C213.862 86.2617 214.112 86.2207 214.327 86.1387C214.545 86.0527 214.717 85.9375 214.842 85.793C214.967 85.6445 215.03 85.4746 215.03 85.2832V85.2715C215.03 85.0566 214.944 84.875 214.772 84.7266C214.6 84.5742 214.319 84.4512 213.928 84.3574L212.95 84.123C212.555 84.0293 212.231 83.9082 211.977 83.7598C211.723 83.6074 211.536 83.4219 211.414 83.2031C211.293 82.9805 211.233 82.7188 211.233 82.418V82.4121C211.233 82.0605 211.334 81.7461 211.537 81.4688C211.745 81.1914 212.026 80.9727 212.381 80.8125C212.737 80.6523 213.137 80.5723 213.582 80.5723C214.024 80.5723 214.414 80.6426 214.754 80.7832C215.098 80.9199 215.373 81.1152 215.58 81.3691C215.791 81.623 215.92 81.9219 215.967 82.2656H214.965C214.899 82.0156 214.746 81.8125 214.508 81.6562C214.27 81.5 213.959 81.4219 213.577 81.4219C213.327 81.4219 213.104 81.4629 212.909 81.5449C212.713 81.623 212.559 81.7324 212.446 81.873C212.332 82.0137 212.276 82.1777 212.276 82.3652V82.377C212.276 82.5176 212.313 82.6426 212.387 82.752C212.461 82.8613 212.577 82.957 212.733 83.0391C212.889 83.1211 213.09 83.1934 213.336 83.2559L214.309 83.4902C214.903 83.6348 215.344 83.8418 215.633 84.1113C215.926 84.3809 216.073 84.7422 216.073 85.1953V85.207C216.073 85.582 215.961 85.9141 215.739 86.2031C215.516 86.4883 215.213 86.7109 214.83 86.8711C214.452 87.0312 214.022 87.1113 213.541 87.1113Z" fill="#9692BD"/>
<path d="M135.929 104.758C135.613 104.338 135.353 103.892 135.147 103.42C134.942 102.948 134.789 102.445 134.688 101.911C134.591 101.377 134.542 100.808 134.542 100.202C134.542 99.5967 134.591 99.0286 134.688 98.498C134.786 97.9642 134.938 97.4613 135.143 96.9893C135.348 96.514 135.61 96.0664 135.929 95.6465H136.642C136.466 95.8711 136.301 96.1543 136.148 96.4961C135.999 96.8379 135.868 97.2155 135.758 97.6289C135.647 98.0391 135.561 98.4655 135.499 98.9082C135.437 99.3477 135.406 99.779 135.406 100.202C135.406 100.629 135.437 101.063 135.499 101.506C135.561 101.945 135.647 102.372 135.758 102.785C135.868 103.195 135.999 103.57 136.148 103.908C136.301 104.25 136.466 104.533 136.642 104.758H135.929ZM137.57 103V97.7363H138.419V98.5371H138.497C138.615 98.2539 138.794 98.0342 139.035 97.8779C139.279 97.7217 139.573 97.6436 139.918 97.6436C140.156 97.6436 140.369 97.6826 140.558 97.7607C140.747 97.8389 140.91 97.9479 141.046 98.0879C141.183 98.2246 141.292 98.3841 141.373 98.5664H141.452C141.546 98.3809 141.673 98.2197 141.832 98.083C141.992 97.943 142.176 97.8356 142.384 97.7607C142.596 97.6826 142.822 97.6436 143.063 97.6436C143.421 97.6436 143.724 97.7103 143.971 97.8438C144.222 97.9772 144.412 98.1725 144.542 98.4297C144.673 98.6836 144.738 98.9945 144.738 99.3623V103H143.888V99.5576C143.888 99.2972 143.847 99.0824 143.766 98.9131C143.688 98.7406 143.567 98.612 143.405 98.5273C143.242 98.4395 143.037 98.3955 142.789 98.3955C142.545 98.3955 142.332 98.4508 142.15 98.5615C141.968 98.6722 141.826 98.8203 141.725 99.0059C141.624 99.1882 141.574 99.3916 141.574 99.6162V103H140.724V99.4258C140.724 99.2174 140.678 99.0368 140.587 98.8838C140.499 98.7275 140.372 98.6071 140.206 98.5225C140.044 98.4378 139.852 98.3955 139.63 98.3955C139.402 98.3955 139.196 98.4557 139.01 98.5762C138.828 98.6966 138.683 98.8594 138.576 99.0645C138.471 99.2663 138.419 99.4909 138.419 99.7383V103H137.57ZM147.316 103.093C146.984 103.093 146.685 103.029 146.418 102.902C146.154 102.775 145.944 102.595 145.788 102.36C145.635 102.126 145.558 101.849 145.558 101.53V101.521C145.558 101.208 145.633 100.941 145.783 100.72C145.933 100.495 146.151 100.319 146.437 100.192C146.724 100.065 147.07 99.9906 147.477 99.9678L149.411 99.8506V100.529L147.58 100.646C147.179 100.669 146.887 100.752 146.701 100.896C146.519 101.039 146.428 101.241 146.428 101.501V101.511C146.428 101.778 146.528 101.986 146.73 102.136C146.932 102.282 147.186 102.355 147.492 102.355C147.782 102.355 148.039 102.299 148.263 102.185C148.488 102.067 148.664 101.91 148.791 101.711C148.921 101.512 148.986 101.288 148.986 101.037V99.3965C148.986 99.071 148.887 98.8236 148.688 98.6543C148.493 98.4818 148.198 98.3955 147.804 98.3955C147.489 98.3955 147.23 98.4525 147.028 98.5664C146.826 98.6771 146.691 98.835 146.623 99.04L146.618 99.0547H145.768L145.773 99.0254C145.819 98.7487 145.933 98.5078 146.115 98.3027C146.301 98.0944 146.54 97.9333 146.833 97.8193C147.126 97.7021 147.459 97.6436 147.834 97.6436C148.263 97.6436 148.626 97.7135 148.923 97.8535C149.222 97.9935 149.448 98.1953 149.601 98.459C149.758 98.7194 149.836 99.0319 149.836 99.3965V103H148.986V102.224H148.908C148.797 102.409 148.662 102.567 148.503 102.697C148.346 102.827 148.169 102.927 147.971 102.995C147.772 103.06 147.554 103.093 147.316 103.093ZM150.569 103L152.37 100.368L150.549 97.7363H151.55L152.8 99.6943H152.878L154.113 97.7363H155.066L153.279 100.334L155.09 103H154.094L152.849 101.013H152.771L151.521 103H150.569ZM160.555 103.166C160.118 103.166 159.729 103.08 159.388 102.907C159.046 102.735 158.771 102.5 158.562 102.204C158.357 101.905 158.237 101.568 158.201 101.193L158.196 101.14H159.041L159.046 101.179C159.075 101.403 159.157 101.608 159.29 101.794C159.427 101.976 159.604 102.121 159.822 102.229C160.044 102.336 160.291 102.39 160.564 102.39C160.877 102.39 161.152 102.321 161.39 102.185C161.627 102.045 161.813 101.853 161.946 101.608C162.08 101.364 162.146 101.084 162.146 100.769V100.759C162.146 100.446 162.078 100.17 161.941 99.9287C161.808 99.6846 161.624 99.4941 161.39 99.3574C161.155 99.2207 160.885 99.1523 160.579 99.1523C160.345 99.1523 160.128 99.1882 159.93 99.2598C159.734 99.3314 159.56 99.4388 159.407 99.582C159.345 99.6406 159.287 99.7041 159.231 99.7725C159.179 99.8408 159.131 99.9173 159.085 100.002H158.323L158.694 95.9541H162.615V96.7402H159.388L159.148 99.123H159.227C159.331 98.9635 159.459 98.8301 159.612 98.7227C159.765 98.6152 159.936 98.5339 160.125 98.4785C160.317 98.4199 160.519 98.3906 160.73 98.3906C161.173 98.3906 161.565 98.4932 161.907 98.6982C162.249 98.9001 162.518 99.1784 162.713 99.5332C162.908 99.8848 163.006 100.288 163.006 100.744V100.754C163.006 101.226 162.9 101.644 162.688 102.009C162.48 102.37 162.192 102.653 161.824 102.858C161.456 103.063 161.033 103.166 160.555 103.166ZM168.383 103.093C167.94 103.093 167.553 102.98 167.221 102.756C166.888 102.531 166.631 102.215 166.449 101.809C166.267 101.398 166.176 100.92 166.176 100.373V100.363C166.176 99.8132 166.267 99.3346 166.449 98.9277C166.631 98.5208 166.887 98.2051 167.216 97.9805C167.548 97.7559 167.937 97.6436 168.383 97.6436C168.624 97.6436 168.85 97.6826 169.061 97.7607C169.276 97.8356 169.467 97.9414 169.633 98.0781C169.799 98.2148 169.929 98.3776 170.023 98.5664H170.101V95.6465H170.951V103H170.101V102.16H170.023C169.916 102.355 169.781 102.523 169.618 102.663C169.455 102.8 169.27 102.906 169.061 102.98C168.853 103.055 168.627 103.093 168.383 103.093ZM168.578 102.341C168.897 102.341 169.172 102.261 169.403 102.102C169.634 101.942 169.812 101.716 169.935 101.423C170.059 101.127 170.121 100.777 170.121 100.373V100.363C170.121 99.9564 170.059 99.6064 169.935 99.3135C169.812 99.0205 169.634 98.7943 169.403 98.6348C169.172 98.4753 168.897 98.3955 168.578 98.3955C168.259 98.3955 167.984 98.4753 167.753 98.6348C167.525 98.791 167.349 99.0156 167.225 99.3086C167.105 99.6016 167.045 99.9531 167.045 100.363V100.373C167.045 100.78 167.105 101.132 167.225 101.428C167.349 101.721 167.525 101.947 167.753 102.106C167.984 102.263 168.259 102.341 168.578 102.341ZM174.345 103.093C173.847 103.093 173.416 102.984 173.051 102.766C172.69 102.544 172.41 102.23 172.211 101.823C172.016 101.416 171.918 100.933 171.918 100.373V100.363C171.918 99.8001 172.016 99.3151 172.211 98.9082C172.41 98.5013 172.69 98.1888 173.051 97.9707C173.416 97.7526 173.847 97.6436 174.345 97.6436C174.846 97.6436 175.278 97.7526 175.639 97.9707C176 98.1888 176.279 98.5013 176.474 98.9082C176.672 99.3151 176.772 99.8001 176.772 100.363V100.373C176.772 100.933 176.672 101.416 176.474 101.823C176.279 102.23 176 102.544 175.639 102.766C175.278 102.984 174.846 103.093 174.345 103.093ZM174.345 102.341C174.677 102.341 174.959 102.263 175.19 102.106C175.421 101.95 175.597 101.726 175.717 101.433C175.841 101.14 175.903 100.786 175.903 100.373V100.363C175.903 99.9466 175.841 99.5918 175.717 99.2988C175.597 99.0059 175.421 98.7829 175.19 98.6299C174.959 98.4736 174.677 98.3955 174.345 98.3955C174.013 98.3955 173.731 98.4736 173.5 98.6299C173.269 98.7829 173.092 99.0059 172.968 99.2988C172.848 99.5918 172.787 99.9466 172.787 100.363V100.373C172.787 100.786 172.848 101.14 172.968 101.433C173.092 101.726 173.269 101.95 173.5 102.106C173.731 102.263 174.013 102.341 174.345 102.341ZM179.843 103.093C179.352 103.093 178.925 102.98 178.564 102.756C178.203 102.531 177.923 102.214 177.724 101.804C177.526 101.394 177.426 100.91 177.426 100.354V100.344C177.426 99.7969 177.524 99.3216 177.719 98.918C177.918 98.5143 178.198 98.2018 178.559 97.9805C178.921 97.7559 179.347 97.6436 179.838 97.6436C180.265 97.6436 180.633 97.7184 180.942 97.8682C181.251 98.0179 181.499 98.2197 181.684 98.4736C181.87 98.7243 181.989 99.0059 182.041 99.3184L182.046 99.3477H181.201L181.196 99.333C181.131 99.0726 180.983 98.8512 180.752 98.6689C180.52 98.4867 180.216 98.3955 179.838 98.3955C179.523 98.3955 179.249 98.4753 179.018 98.6348C178.787 98.7943 178.608 99.0205 178.481 99.3135C178.357 99.6032 178.296 99.9466 178.296 100.344V100.354C178.296 100.757 178.359 101.109 178.486 101.408C178.613 101.704 178.792 101.934 179.023 102.097C179.254 102.259 179.526 102.341 179.838 102.341C180.193 102.341 180.483 102.264 180.708 102.111C180.932 101.958 181.093 101.735 181.191 101.442L181.201 101.413L182.041 101.408L182.031 101.462C181.959 101.778 181.832 102.059 181.65 102.307C181.468 102.551 181.227 102.743 180.927 102.883C180.628 103.023 180.267 103.093 179.843 103.093ZM184.648 103.093C184.251 103.093 183.918 103.018 183.647 102.868C183.377 102.715 183.174 102.494 183.037 102.204C182.904 101.911 182.837 101.558 182.837 101.145V97.7363H183.687V100.939C183.687 101.411 183.778 101.763 183.96 101.994C184.146 102.225 184.448 102.341 184.868 102.341C185.099 102.341 185.303 102.307 185.479 102.238C185.658 102.17 185.807 102.072 185.928 101.945C186.048 101.815 186.138 101.659 186.196 101.477C186.258 101.291 186.289 101.083 186.289 100.852V97.7363H187.139V103H186.289V102.214H186.211C186.126 102.399 186.011 102.559 185.864 102.692C185.718 102.823 185.542 102.922 185.337 102.99C185.135 103.059 184.906 103.093 184.648 103.093ZM188.326 103V97.7363H189.175V98.5371H189.253C189.371 98.2539 189.55 98.0342 189.79 97.8779C190.035 97.7217 190.329 97.6436 190.674 97.6436C190.912 97.6436 191.125 97.6826 191.314 97.7607C191.503 97.8389 191.665 97.9479 191.802 98.0879C191.939 98.2246 192.048 98.3841 192.129 98.5664H192.207C192.302 98.3809 192.429 98.2197 192.588 98.083C192.748 97.943 192.932 97.8356 193.14 97.7607C193.352 97.6826 193.578 97.6436 193.819 97.6436C194.177 97.6436 194.48 97.7103 194.727 97.8438C194.978 97.9772 195.168 98.1725 195.298 98.4297C195.428 98.6836 195.494 98.9945 195.494 99.3623V103H194.644V99.5576C194.644 99.2972 194.603 99.0824 194.522 98.9131C194.444 98.7406 194.323 98.612 194.161 98.5273C193.998 98.4395 193.793 98.3955 193.545 98.3955C193.301 98.3955 193.088 98.4508 192.906 98.5615C192.723 98.6722 192.582 98.8203 192.481 99.0059C192.38 99.1882 192.329 99.3916 192.329 99.6162V103H191.48V99.4258C191.48 99.2174 191.434 99.0368 191.343 98.8838C191.255 98.7275 191.128 98.6071 190.962 98.5225C190.8 98.4378 190.607 98.3955 190.386 98.3955C190.158 98.3955 189.952 98.4557 189.766 98.5762C189.584 98.6966 189.439 98.8594 189.331 99.0645C189.227 99.2663 189.175 99.4909 189.175 99.7383V103H188.326ZM198.775 103.093C198.274 103.093 197.843 102.982 197.481 102.761C197.123 102.539 196.846 102.227 196.651 101.823C196.459 101.416 196.363 100.938 196.363 100.388V100.383C196.363 99.8392 196.459 99.3623 196.651 98.9521C196.846 98.542 197.122 98.2214 197.476 97.9902C197.831 97.7591 198.246 97.6436 198.721 97.6436C199.2 97.6436 199.61 97.7542 199.952 97.9756C200.297 98.1969 200.561 98.5062 200.743 98.9033C200.929 99.2972 201.021 99.7562 201.021 100.28V100.612H196.803V99.9336H200.587L200.167 100.554V100.217C200.167 99.8034 200.105 99.4632 199.981 99.1963C199.858 98.9294 199.687 98.7308 199.469 98.6006C199.25 98.4671 199 98.4004 198.717 98.4004C198.433 98.4004 198.179 98.4704 197.955 98.6104C197.734 98.7471 197.558 98.9505 197.428 99.2207C197.297 99.4909 197.232 99.8229 197.232 100.217V100.554C197.232 100.928 197.296 101.249 197.423 101.516C197.55 101.779 197.73 101.983 197.965 102.126C198.199 102.266 198.476 102.336 198.795 102.336C199.032 102.336 199.239 102.303 199.415 102.238C199.591 102.173 199.735 102.09 199.849 101.989C199.963 101.888 200.043 101.786 200.089 101.682L200.108 101.638H200.958L200.948 101.677C200.902 101.856 200.821 102.03 200.704 102.199C200.59 102.365 200.442 102.517 200.26 102.653C200.077 102.787 199.861 102.894 199.61 102.976C199.363 103.054 199.084 103.093 198.775 103.093ZM201.94 103V97.7363H202.789V98.5273H202.867C203.001 98.2474 203.193 98.0309 203.444 97.8779C203.694 97.7217 204.013 97.6436 204.401 97.6436C204.993 97.6436 205.447 97.8128 205.763 98.1514C206.082 98.4867 206.241 98.9668 206.241 99.5918V103H205.392V99.7969C205.392 99.3216 205.291 98.9701 205.089 98.7422C204.89 98.5111 204.581 98.3955 204.161 98.3955C203.881 98.3955 203.639 98.4557 203.434 98.5762C203.229 98.6966 203.069 98.8675 202.955 99.0889C202.845 99.3102 202.789 99.5755 202.789 99.8848V103H201.94ZM209.25 103.039C208.709 103.039 208.317 102.93 208.073 102.712C207.832 102.494 207.712 102.134 207.712 101.633V98.4395H206.881V97.7363H207.712V96.374H208.59V97.7363H209.743V98.4395H208.59V101.418C208.59 101.727 208.649 101.95 208.766 102.087C208.883 102.22 209.079 102.287 209.352 102.287C209.427 102.287 209.49 102.285 209.543 102.282C209.598 102.279 209.665 102.274 209.743 102.268V102.99C209.661 103.003 209.58 103.015 209.499 103.024C209.417 103.034 209.334 103.039 209.25 103.039ZM211.071 104.758H210.358C210.534 104.533 210.697 104.25 210.847 103.908C211 103.57 211.132 103.195 211.242 102.785C211.353 102.372 211.439 101.945 211.501 101.506C211.563 101.063 211.594 100.629 211.594 100.202C211.594 99.779 211.563 99.3477 211.501 98.9082C211.439 98.4655 211.353 98.0391 211.242 97.6289C211.132 97.2155 211 96.8379 210.847 96.4961C210.697 96.1543 210.534 95.8711 210.358 95.6465H211.071C211.39 96.0664 211.652 96.514 211.857 96.9893C212.062 97.4613 212.214 97.9642 212.312 98.498C212.409 99.0286 212.458 99.5967 212.458 100.202C212.458 100.808 212.408 101.377 212.307 101.911C212.209 102.445 212.058 102.948 211.853 103.42C211.651 103.892 211.39 104.338 211.071 104.758Z" fill="#9692BD"/>
</svg>
