<svg width="347" height="122" viewBox="0 0 347 122" fill="none" xmlns="http://www.w3.org/2000/svg">
<rect x="1" y="1" width="345" height="120" rx="12" fill="#FAF4FE" stroke="#00005B" stroke-dasharray="6 6"/>
<path opacity="0.4" d="M189.32 36.2972C188.304 36.2972 186.958 36.2748 185.283 36.2748C181.197 36.2748 177.837 32.893 177.837 28.7688V21.5328C177.837 20.9635 177.381 20.5 176.819 20.5H164.918C159.364 20.5 154.875 25.0585 154.875 30.6452V54.889C154.875 60.7503 159.578 65.5 165.382 65.5H183.102C188.638 65.5 193.125 60.9707 193.125 55.3795V37.3097C193.125 36.7383 192.671 36.277 192.105 36.2793C191.156 36.286 190.013 36.2972 189.32 36.2972Z" fill="#00005B"/>
<path opacity="0.4" d="M183.19 21.7763C182.517 21.0766 181.342 21.5581 181.342 22.5278V28.4611C181.342 30.9496 183.392 32.9971 185.878 32.9971C187.449 33.0151 189.627 33.0196 191.476 33.0151C192.424 33.0128 192.905 31.8811 192.248 31.1971C189.874 28.7288 185.624 24.3053 183.19 21.7763Z" fill="#00005B"/>
<path d="M179.326 43.5316H175.438V39.6459C175.438 38.7211 174.689 37.9696 173.764 37.9696C172.84 37.9696 172.088 38.7211 172.088 39.6459V43.5316H168.202C167.278 43.5316 166.528 44.2831 166.528 45.2079C166.528 46.1326 167.278 46.8841 168.202 46.8841H172.088V50.7676C172.088 51.6924 172.84 52.4439 173.764 52.4439C174.689 52.4439 175.438 51.6924 175.438 50.7676V46.8841H179.326C180.251 46.8841 181.003 46.1326 181.003 45.2079C181.003 44.2831 180.251 43.5316 179.326 43.5316Z" fill="#00005B"/>
<path d="M83.7934 87L86.9105 78.5449H87.7191V79.9102H87.3852L84.9008 87H83.7934ZM85.2055 84.5801L85.5336 83.6836H89.3539L89.682 84.5801H85.2055ZM89.9633 87L87.4789 79.9102V78.5449H87.9535L91.0707 87H89.9633ZM94.0047 87.1113C93.4734 87.1113 93.0086 86.9766 92.6102 86.707C92.2117 86.4375 91.9031 86.0586 91.6844 85.5703C91.4656 85.0781 91.3562 84.5039 91.3562 83.8477V83.8359C91.3562 83.1758 91.4656 82.6016 91.6844 82.1133C91.9031 81.625 92.2098 81.2461 92.6043 80.9766C93.0027 80.707 93.4695 80.5723 94.0047 80.5723C94.2937 80.5723 94.5652 80.6191 94.8191 80.7129C95.077 80.8027 95.3055 80.9297 95.5047 81.0938C95.7039 81.2578 95.8602 81.4531 95.9734 81.6797H96.0672V78.1758H97.0867V87H96.0672V85.9922H95.9734C95.8445 86.2266 95.6824 86.4277 95.4871 86.5957C95.2918 86.7598 95.0691 86.8867 94.8191 86.9766C94.5691 87.0664 94.2977 87.1113 94.0047 87.1113ZM94.2391 86.209C94.6219 86.209 94.952 86.1133 95.2293 85.9219C95.5066 85.7305 95.7195 85.459 95.868 85.1074C96.0164 84.752 96.0906 84.332 96.0906 83.8477V83.8359C96.0906 83.3477 96.0164 82.9277 95.868 82.5762C95.7195 82.2246 95.5066 81.9531 95.2293 81.7617C94.952 81.5703 94.6219 81.4746 94.2391 81.4746C93.8562 81.4746 93.5262 81.5703 93.2488 81.7617C92.9754 81.9492 92.7645 82.2188 92.616 82.5703C92.4715 82.9219 92.3992 83.3438 92.3992 83.8359V83.8477C92.3992 84.3359 92.4715 84.7578 92.616 85.1133C92.7645 85.4648 92.9754 85.7363 93.2488 85.9277C93.5262 86.1152 93.8562 86.209 94.2391 86.209ZM100.976 87.1113C100.445 87.1113 99.9797 86.9766 99.5812 86.707C99.1828 86.4375 98.8742 86.0586 98.6555 85.5703C98.4367 85.0781 98.3273 84.5039 98.3273 83.8477V83.8359C98.3273 83.1758 98.4367 82.6016 98.6555 82.1133C98.8742 81.625 99.1809 81.2461 99.5754 80.9766C99.9738 80.707 100.441 80.5723 100.976 80.5723C101.265 80.5723 101.536 80.6191 101.79 80.7129C102.048 80.8027 102.277 80.9297 102.476 81.0938C102.675 81.2578 102.831 81.4531 102.945 81.6797H103.038V78.1758H104.058V87H103.038V85.9922H102.945C102.816 86.2266 102.654 86.4277 102.458 86.5957C102.263 86.7598 102.04 86.8867 101.79 86.9766C101.54 87.0664 101.269 87.1113 100.976 87.1113ZM101.21 86.209C101.593 86.209 101.923 86.1133 102.2 85.9219C102.478 85.7305 102.691 85.459 102.839 85.1074C102.987 84.752 103.062 84.332 103.062 83.8477V83.8359C103.062 83.3477 102.987 82.9277 102.839 82.5762C102.691 82.2246 102.478 81.9531 102.2 81.7617C101.923 81.5703 101.593 81.4746 101.21 81.4746C100.827 81.4746 100.497 81.5703 100.22 81.7617C99.9465 81.9492 99.7355 82.2188 99.5871 82.5703C99.4426 82.9219 99.3703 83.3438 99.3703 83.8359V83.8477C99.3703 84.3359 99.4426 84.7578 99.5871 85.1133C99.7355 85.4648 99.9465 85.7363 100.22 85.9277C100.497 86.1152 100.827 86.209 101.21 86.209ZM108.719 87V78.5449H111.619C112.455 78.5449 113.17 78.7129 113.764 79.0488C114.361 79.3809 114.818 79.8613 115.135 80.4902C115.451 81.1191 115.609 81.877 115.609 82.7637V82.7754C115.609 83.6621 115.451 84.4219 115.135 85.0547C114.818 85.6836 114.363 86.166 113.77 86.502C113.176 86.834 112.459 87 111.619 87H108.719ZM109.773 86.0508H111.549C112.178 86.0508 112.715 85.9219 113.16 85.6641C113.605 85.4062 113.945 85.0332 114.18 84.5449C114.414 84.0566 114.531 83.4707 114.531 82.7871V82.7754C114.531 82.0879 114.412 81.5 114.174 81.0117C113.939 80.5195 113.6 80.1445 113.154 79.8867C112.709 79.625 112.174 79.4941 111.549 79.4941H109.773V86.0508ZM119.504 87.1113C118.907 87.1113 118.389 86.9805 117.952 86.7188C117.518 86.4531 117.182 86.0762 116.944 85.5879C116.709 85.0996 116.592 84.5195 116.592 83.8477V83.8359C116.592 83.1602 116.709 82.5781 116.944 82.0898C117.182 81.6016 117.518 81.2266 117.952 80.9648C118.389 80.7031 118.907 80.5723 119.504 80.5723C120.106 80.5723 120.623 80.7031 121.057 80.9648C121.491 81.2266 121.825 81.6016 122.059 82.0898C122.297 82.5781 122.416 83.1602 122.416 83.8359V83.8477C122.416 84.5195 122.297 85.0996 122.059 85.5879C121.825 86.0762 121.491 86.4531 121.057 86.7188C120.623 86.9805 120.106 87.1113 119.504 87.1113ZM119.504 86.209C119.903 86.209 120.241 86.1152 120.518 85.9277C120.795 85.7402 121.006 85.4707 121.151 85.1191C121.299 84.7676 121.373 84.3438 121.373 83.8477V83.8359C121.373 83.3359 121.299 82.9102 121.151 82.5586C121.006 82.207 120.795 81.9395 120.518 81.7559C120.241 81.5684 119.903 81.4746 119.504 81.4746C119.106 81.4746 118.768 81.5684 118.491 81.7559C118.213 81.9395 118 82.207 117.852 82.5586C117.707 82.9102 117.635 83.3359 117.635 83.8359V83.8477C117.635 84.3438 117.707 84.7676 117.852 85.1191C118 85.4707 118.213 85.7402 118.491 85.9277C118.768 86.1152 119.106 86.209 119.504 86.209ZM126.182 87.1113C125.593 87.1113 125.081 86.9766 124.647 86.707C124.214 86.4375 123.878 86.0566 123.639 85.5645C123.401 85.0723 123.282 84.4922 123.282 83.8242V83.8125C123.282 83.1562 123.399 82.5859 123.634 82.1016C123.872 81.6172 124.208 81.2422 124.641 80.9766C125.075 80.707 125.587 80.5723 126.177 80.5723C126.688 80.5723 127.13 80.6621 127.501 80.8418C127.872 81.0215 128.169 81.2637 128.391 81.5684C128.614 81.8691 128.757 82.207 128.819 82.582L128.825 82.6172H127.811L127.805 82.5996C127.727 82.2871 127.55 82.0215 127.272 81.8027C126.995 81.584 126.63 81.4746 126.177 81.4746C125.798 81.4746 125.47 81.5703 125.192 81.7617C124.915 81.9531 124.7 82.2246 124.548 82.5762C124.399 82.9238 124.325 83.3359 124.325 83.8125V83.8242C124.325 84.3086 124.401 84.7305 124.554 85.0898C124.706 85.4453 124.921 85.7207 125.198 85.916C125.475 86.1113 125.802 86.209 126.177 86.209C126.602 86.209 126.95 86.1172 127.22 85.9336C127.489 85.75 127.682 85.4824 127.8 85.1309L127.811 85.0957L128.819 85.0898L128.807 85.1543C128.721 85.5332 128.569 85.8711 128.35 86.168C128.132 86.4609 127.843 86.6914 127.483 86.8594C127.124 87.0273 126.69 87.1113 126.182 87.1113ZM132.029 87.1113C131.552 87.1113 131.152 87.0215 130.827 86.8418C130.503 86.6582 130.259 86.3926 130.095 86.0449C129.935 85.6934 129.855 85.2695 129.855 84.7734V80.6836H130.874V84.5273C130.874 85.0938 130.984 85.5156 131.202 85.793C131.425 86.0703 131.788 86.209 132.292 86.209C132.57 86.209 132.814 86.168 133.025 86.0859C133.239 86.0039 133.419 85.8867 133.564 85.7344C133.708 85.5781 133.816 85.3906 133.886 85.1719C133.96 84.9492 133.997 84.6992 133.997 84.4219V80.6836H135.017V87H133.997V86.0566H133.904C133.802 86.2793 133.663 86.4707 133.487 86.6309C133.312 86.7871 133.101 86.9062 132.855 86.9883C132.612 87.0703 132.337 87.1113 132.029 87.1113ZM136.521 87V80.6836H137.541V81.6445H137.634C137.775 81.3047 137.99 81.041 138.279 80.8535C138.572 80.666 138.925 80.5723 139.339 80.5723C139.625 80.5723 139.88 80.6191 140.107 80.7129C140.334 80.8066 140.529 80.9375 140.693 81.1055C140.857 81.2695 140.988 81.4609 141.086 81.6797H141.179C141.293 81.457 141.445 81.2637 141.636 81.0996C141.828 80.9316 142.048 80.8027 142.298 80.7129C142.552 80.6191 142.824 80.5723 143.113 80.5723C143.543 80.5723 143.906 80.6523 144.203 80.8125C144.504 80.9727 144.732 81.207 144.888 81.5156C145.045 81.8203 145.123 82.1934 145.123 82.6348V87H144.103V82.8691C144.103 82.5566 144.054 82.2988 143.957 82.0957C143.863 81.8887 143.718 81.7344 143.523 81.6328C143.328 81.5273 143.082 81.4746 142.785 81.4746C142.492 81.4746 142.236 81.541 142.017 81.6738C141.798 81.8066 141.629 81.9844 141.507 82.207C141.386 82.4258 141.326 82.6699 141.326 82.9395V87H140.306V82.7109C140.306 82.4609 140.252 82.2441 140.142 82.0605C140.037 81.873 139.884 81.7285 139.685 81.627C139.49 81.5254 139.259 81.4746 138.994 81.4746C138.72 81.4746 138.472 81.5469 138.25 81.6914C138.031 81.8359 137.857 82.0312 137.728 82.2773C137.603 82.5195 137.541 82.7891 137.541 83.0859V87H136.521ZM149.141 87.1113C148.539 87.1113 148.021 86.9785 147.588 86.7129C147.158 86.4473 146.826 86.0723 146.592 85.5879C146.361 85.0996 146.246 84.5254 146.246 83.8652V83.8594C146.246 83.207 146.361 82.6348 146.592 82.1426C146.826 81.6504 147.156 81.2656 147.582 80.9883C148.008 80.7109 148.506 80.5723 149.076 80.5723C149.65 80.5723 150.143 80.7051 150.553 80.9707C150.967 81.2363 151.283 81.6074 151.502 82.084C151.725 82.5566 151.836 83.1074 151.836 83.7363V84.1348H146.773V83.3203H151.314L150.811 84.0645V83.6602C150.811 83.1641 150.736 82.7559 150.588 82.4355C150.439 82.1152 150.234 81.877 149.973 81.7207C149.711 81.5605 149.41 81.4805 149.07 81.4805C148.73 81.4805 148.426 81.5645 148.156 81.7324C147.891 81.8965 147.68 82.1406 147.523 82.4648C147.367 82.7891 147.289 83.1875 147.289 83.6602V84.0645C147.289 84.5137 147.365 84.8984 147.518 85.2188C147.67 85.5352 147.887 85.7793 148.168 85.9512C148.449 86.1191 148.781 86.2031 149.164 86.2031C149.449 86.2031 149.697 86.1641 149.908 86.0859C150.119 86.0078 150.293 85.9082 150.43 85.7871C150.566 85.666 150.662 85.543 150.717 85.418L150.74 85.3652H151.76L151.748 85.4121C151.693 85.627 151.596 85.8359 151.455 86.0391C151.318 86.2383 151.141 86.4199 150.922 86.584C150.703 86.7441 150.443 86.873 150.143 86.9707C149.846 87.0645 149.512 87.1113 149.141 87.1113ZM153.018 87V80.6836H154.037V81.6328H154.131C154.291 81.2969 154.522 81.0371 154.823 80.8535C155.123 80.666 155.506 80.5723 155.971 80.5723C156.682 80.5723 157.227 80.7754 157.606 81.1816C157.989 81.584 158.18 82.1602 158.18 82.9102V87H157.161V83.1562C157.161 82.5859 157.039 82.1641 156.797 81.8906C156.559 81.6133 156.188 81.4746 155.684 81.4746C155.348 81.4746 155.057 81.5469 154.811 81.6914C154.565 81.8359 154.373 82.041 154.237 82.3066C154.104 82.5723 154.037 82.8906 154.037 83.2617V87H153.018ZM161.87 87.0469C161.221 87.0469 160.751 86.916 160.458 86.6543C160.169 86.3926 160.024 85.9609 160.024 85.3594V81.5273H159.028V80.6836H160.024V79.0488H161.079V80.6836H162.462V81.5273H161.079V85.1016C161.079 85.4727 161.149 85.7402 161.29 85.9043C161.43 86.0645 161.665 86.1445 161.993 86.1445C162.083 86.1445 162.159 86.1426 162.221 86.1387C162.288 86.1348 162.368 86.1289 162.462 86.1211V86.9883C162.364 87.0039 162.266 87.0176 162.169 87.0293C162.071 87.041 161.971 87.0469 161.87 87.0469ZM165.636 87.1113C165.167 87.1113 164.753 87.041 164.394 86.9004C164.034 86.7559 163.745 86.5547 163.527 86.2969C163.312 86.0391 163.185 85.7363 163.146 85.3887H164.189C164.275 85.6504 164.443 85.8613 164.693 86.0215C164.943 86.1816 165.269 86.2617 165.671 86.2617C165.956 86.2617 166.206 86.2207 166.421 86.1387C166.64 86.0527 166.812 85.9375 166.937 85.793C167.062 85.6445 167.124 85.4746 167.124 85.2832V85.2715C167.124 85.0566 167.038 84.875 166.866 84.7266C166.695 84.5742 166.413 84.4512 166.023 84.3574L165.044 84.123C164.65 84.0293 164.325 83.9082 164.071 83.7598C163.818 83.6074 163.63 83.4219 163.509 83.2031C163.388 82.9805 163.327 82.7188 163.327 82.418V82.4121C163.327 82.0605 163.429 81.7461 163.632 81.4688C163.839 81.1914 164.12 80.9727 164.476 80.8125C164.831 80.6523 165.232 80.5723 165.677 80.5723C166.118 80.5723 166.509 80.6426 166.849 80.7832C167.193 80.9199 167.468 81.1152 167.675 81.3691C167.886 81.623 168.015 81.9219 168.062 82.2656H167.06C166.993 82.0156 166.841 81.8125 166.603 81.6562C166.364 81.5 166.054 81.4219 165.671 81.4219C165.421 81.4219 165.198 81.4629 165.003 81.5449C164.808 81.623 164.654 81.7324 164.54 81.873C164.427 82.0137 164.37 82.1777 164.37 82.3652V82.377C164.37 82.5176 164.407 82.6426 164.482 82.752C164.556 82.8613 164.671 82.957 164.827 83.0391C164.984 83.1211 165.185 83.1934 165.431 83.2559L166.404 83.4902C166.997 83.6348 167.439 83.8418 167.728 84.1113C168.021 84.3809 168.167 84.7422 168.167 85.1953V85.207C168.167 85.582 168.056 85.9141 167.833 86.2031C167.611 86.4883 167.308 86.7109 166.925 86.8711C166.546 87.0312 166.116 87.1113 165.636 87.1113ZM172.98 87V86.0684H175.594C176.23 86.0684 176.713 85.9414 177.041 85.6875C177.369 85.4336 177.533 85.0645 177.533 84.5801V84.5684C177.533 84.2441 177.457 83.9727 177.305 83.7539C177.152 83.5352 176.924 83.3711 176.619 83.2617C176.318 83.1523 175.943 83.0977 175.494 83.0977H172.98V82.1895H175.195C175.836 82.1895 176.316 82.0762 176.637 81.8496C176.961 81.623 177.123 81.2871 177.123 80.8418V80.8301C177.123 80.4004 176.977 80.0684 176.684 79.834C176.395 79.5957 175.988 79.4766 175.465 79.4766H172.98V78.5449H175.688C176.207 78.5449 176.652 78.6309 177.023 78.8027C177.398 78.9746 177.686 79.2188 177.885 79.5352C178.088 79.8477 178.189 80.2188 178.189 80.6484V80.6602C178.189 80.9531 178.123 81.2285 177.99 81.4863C177.861 81.7441 177.688 81.9609 177.469 82.1367C177.25 82.3125 177.004 82.4258 176.73 82.4766V82.5703C177.117 82.6172 177.451 82.7324 177.732 82.916C178.014 83.0996 178.23 83.3379 178.383 83.6309C178.539 83.9199 178.617 84.25 178.617 84.6211V84.6328C178.617 85.125 178.502 85.5488 178.271 85.9043C178.045 86.2559 177.719 86.5273 177.293 86.7188C176.867 86.9062 176.354 87 175.752 87H172.98ZM172.453 87V78.5449H173.508V87H172.453ZM179.834 87V80.6836H180.854V87H179.834ZM180.35 79.4648C180.159 79.4648 179.993 79.3965 179.852 79.2598C179.715 79.1191 179.647 78.9531 179.647 78.7617C179.647 78.5664 179.715 78.4004 179.852 78.2637C179.993 78.127 180.159 78.0586 180.35 78.0586C180.545 78.0586 180.711 78.127 180.848 78.2637C180.985 78.4004 181.053 78.5664 181.053 78.7617C181.053 78.9531 180.985 79.1191 180.848 79.2598C180.711 79.3965 180.545 79.4648 180.35 79.4648ZM182.434 87V78.1758H183.454V87H182.434ZM185.07 87V78.1758H186.089V87H185.07ZM187.388 89.1504L187.898 85.8164H189.064L188.144 89.1504H187.388ZM193.912 87V78.5449H194.967V87H193.912ZM196.595 87V80.6836H197.614V81.6328H197.708C197.868 81.2969 198.098 81.0371 198.399 80.8535C198.7 80.666 199.083 80.5723 199.548 80.5723C200.259 80.5723 200.804 80.7754 201.182 81.1816C201.565 81.584 201.757 82.1602 201.757 82.9102V87H200.737V83.1562C200.737 82.5859 200.616 82.1641 200.374 81.8906C200.136 81.6133 199.764 81.4746 199.261 81.4746C198.925 81.4746 198.634 81.5469 198.387 81.6914C198.141 81.8359 197.95 82.041 197.813 82.3066C197.68 82.5723 197.614 82.8906 197.614 83.2617V87H196.595ZM204.755 87L202.417 80.6836H203.495L205.224 85.8867H205.318L207.046 80.6836H208.124L205.786 87H204.755ZM211.433 87.1113C210.836 87.1113 210.318 86.9805 209.88 86.7188C209.447 86.4531 209.111 86.0762 208.873 85.5879C208.638 85.0996 208.521 84.5195 208.521 83.8477V83.8359C208.521 83.1602 208.638 82.5781 208.873 82.0898C209.111 81.6016 209.447 81.2266 209.88 80.9648C210.318 80.7031 210.836 80.5723 211.433 80.5723C212.035 80.5723 212.552 80.7031 212.986 80.9648C213.42 81.2266 213.754 81.6016 213.988 82.0898C214.226 82.5781 214.345 83.1602 214.345 83.8359V83.8477C214.345 84.5195 214.226 85.0996 213.988 85.5879C213.754 86.0762 213.42 86.4531 212.986 86.7188C212.552 86.9805 212.035 87.1113 211.433 87.1113ZM211.433 86.209C211.832 86.209 212.17 86.1152 212.447 85.9277C212.724 85.7402 212.935 85.4707 213.08 85.1191C213.228 84.7676 213.302 84.3438 213.302 83.8477V83.8359C213.302 83.3359 213.228 82.9102 213.08 82.5586C212.935 82.207 212.724 81.9395 212.447 81.7559C212.17 81.5684 211.832 81.4746 211.433 81.4746C211.035 81.4746 210.697 81.5684 210.42 81.7559C210.142 81.9395 209.929 82.207 209.781 82.5586C209.636 82.9102 209.564 83.3359 209.564 83.8359V83.8477C209.564 84.3438 209.636 84.7676 209.781 85.1191C209.929 85.4707 210.142 85.7402 210.42 85.9277C210.697 86.1152 211.035 86.209 211.433 86.209ZM215.551 87V80.6836H216.57V87H215.551ZM216.066 79.4648C215.875 79.4648 215.709 79.3965 215.568 79.2598C215.432 79.1191 215.363 78.9531 215.363 78.7617C215.363 78.5664 215.432 78.4004 215.568 78.2637C215.709 78.127 215.875 78.0586 216.066 78.0586C216.262 78.0586 216.428 78.127 216.564 78.2637C216.701 78.4004 216.77 78.5664 216.77 78.7617C216.77 78.9531 216.701 79.1191 216.564 79.2598C216.428 79.3965 216.262 79.4648 216.066 79.4648ZM220.676 87.1113C220.086 87.1113 219.575 86.9766 219.141 86.707C218.707 86.4375 218.371 86.0566 218.133 85.5645C217.895 85.0723 217.776 84.4922 217.776 83.8242V83.8125C217.776 83.1562 217.893 82.5859 218.127 82.1016C218.366 81.6172 218.702 81.2422 219.135 80.9766C219.569 80.707 220.08 80.5723 220.67 80.5723C221.182 80.5723 221.623 80.6621 221.995 80.8418C222.366 81.0215 222.663 81.2637 222.885 81.5684C223.108 81.8691 223.25 82.207 223.313 82.582L223.319 82.6172H222.305L222.299 82.5996C222.221 82.2871 222.043 82.0215 221.766 81.8027C221.489 81.584 221.123 81.4746 220.67 81.4746C220.291 81.4746 219.963 81.5703 219.686 81.7617C219.409 81.9531 219.194 82.2246 219.041 82.5762C218.893 82.9238 218.819 83.3359 218.819 83.8125V83.8242C218.819 84.3086 218.895 84.7305 219.047 85.0898C219.2 85.4453 219.414 85.7207 219.692 85.916C219.969 86.1113 220.295 86.209 220.67 86.209C221.096 86.209 221.444 86.1172 221.713 85.9336C221.983 85.75 222.176 85.4824 222.293 85.1309L222.305 85.0957L223.313 85.0898L223.301 85.1543C223.215 85.5332 223.063 85.8711 222.844 86.168C222.625 86.4609 222.336 86.6914 221.977 86.8594C221.618 87.0273 221.184 87.1113 220.676 87.1113ZM226.985 87.1113C226.384 87.1113 225.866 86.9785 225.432 86.7129C225.003 86.4473 224.671 86.0723 224.436 85.5879C224.206 85.0996 224.091 84.5254 224.091 83.8652V83.8594C224.091 83.207 224.206 82.6348 224.436 82.1426C224.671 81.6504 225.001 81.2656 225.427 80.9883C225.852 80.7109 226.35 80.5723 226.921 80.5723C227.495 80.5723 227.987 80.7051 228.397 80.9707C228.811 81.2363 229.128 81.6074 229.346 82.084C229.569 82.5566 229.68 83.1074 229.68 83.7363V84.1348H224.618V83.3203H229.159L228.655 84.0645V83.6602C228.655 83.1641 228.581 82.7559 228.432 82.4355C228.284 82.1152 228.079 81.877 227.817 81.7207C227.555 81.5605 227.255 81.4805 226.915 81.4805C226.575 81.4805 226.27 81.5645 226.001 81.7324C225.735 81.8965 225.524 82.1406 225.368 82.4648C225.212 82.7891 225.134 83.1875 225.134 83.6602V84.0645C225.134 84.5137 225.21 84.8984 225.362 85.2188C225.514 85.5352 225.731 85.7793 226.013 85.9512C226.294 86.1191 226.626 86.2031 227.009 86.2031C227.294 86.2031 227.542 86.1641 227.753 86.0859C227.964 86.0078 228.138 85.9082 228.274 85.7871C228.411 85.666 228.507 85.543 228.561 85.418L228.585 85.3652H229.604L229.593 85.4121C229.538 85.627 229.44 85.8359 229.3 86.0391C229.163 86.2383 228.985 86.4199 228.766 86.584C228.548 86.7441 228.288 86.873 227.987 86.9707C227.69 87.0645 227.356 87.1113 226.985 87.1113ZM236.433 87.1113C235.836 87.1113 235.318 86.9805 234.88 86.7188C234.447 86.4531 234.111 86.0762 233.873 85.5879C233.638 85.0996 233.521 84.5195 233.521 83.8477V83.8359C233.521 83.1602 233.638 82.5781 233.873 82.0898C234.111 81.6016 234.447 81.2266 234.88 80.9648C235.318 80.7031 235.836 80.5723 236.433 80.5723C237.035 80.5723 237.552 80.7031 237.986 80.9648C238.42 81.2266 238.754 81.6016 238.988 82.0898C239.226 82.5781 239.345 83.1602 239.345 83.8359V83.8477C239.345 84.5195 239.226 85.0996 238.988 85.5879C238.754 86.0762 238.42 86.4531 237.986 86.7188C237.552 86.9805 237.035 87.1113 236.433 87.1113ZM236.433 86.209C236.832 86.209 237.17 86.1152 237.447 85.9277C237.724 85.7402 237.935 85.4707 238.08 85.1191C238.228 84.7676 238.302 84.3438 238.302 83.8477V83.8359C238.302 83.3359 238.228 82.9102 238.08 82.5586C237.935 82.207 237.724 81.9395 237.447 81.7559C237.17 81.5684 236.832 81.4746 236.433 81.4746C236.035 81.4746 235.697 81.5684 235.42 81.7559C235.142 81.9395 234.929 82.207 234.781 82.5586C234.636 82.9102 234.564 83.3359 234.564 83.8359V83.8477C234.564 84.3438 234.636 84.7676 234.781 85.1191C234.929 85.4707 235.142 85.7402 235.42 85.9277C235.697 86.1152 236.035 86.209 236.433 86.209ZM240.527 87V80.6836H241.547V81.6211H241.641C241.762 81.2891 241.967 81.0312 242.256 80.8477C242.545 80.6641 242.902 80.5723 243.328 80.5723C243.426 80.5723 243.521 80.5781 243.615 80.5898C243.713 80.5977 243.787 80.6055 243.838 80.6133V81.6035C243.732 81.584 243.629 81.5703 243.527 81.5625C243.43 81.5508 243.324 81.5449 243.211 81.5449C242.887 81.5449 242.6 81.6094 242.35 81.7383C242.1 81.8672 241.902 82.0469 241.758 82.2773C241.617 82.5078 241.547 82.7773 241.547 83.0859V87H240.527ZM251.153 87.1992C250.454 87.1992 249.852 87.0684 249.348 86.8066C248.848 86.5449 248.464 86.1816 248.194 85.7168C247.925 85.248 247.79 84.707 247.79 84.0938V78.5449H248.845V84.0234C248.845 84.457 248.934 84.8398 249.114 85.1719C249.298 85.5 249.561 85.7578 249.905 85.9453C250.249 86.1328 250.665 86.2266 251.153 86.2266C251.641 86.2266 252.055 86.1328 252.395 85.9453C252.739 85.7578 253.001 85.5 253.18 85.1719C253.36 84.8398 253.45 84.457 253.45 84.0234V78.5449H254.505V84.0938C254.505 84.707 254.37 85.248 254.1 85.7168C253.835 86.1816 253.452 86.5449 252.952 86.8066C252.452 87.0684 251.852 87.1992 251.153 87.1992ZM256.777 83.9824V83.0449H259.167C259.773 83.0449 260.241 82.8887 260.573 82.5762C260.905 82.2598 261.071 81.8242 261.071 81.2695V81.2578C261.071 80.6992 260.905 80.2637 260.573 79.9512C260.241 79.6387 259.773 79.4824 259.167 79.4824H256.777V78.5449H259.437C259.968 78.5449 260.437 78.6582 260.843 78.8848C261.249 79.1113 261.568 79.4277 261.798 79.834C262.032 80.2402 262.15 80.7109 262.15 81.2461V81.2578C262.15 81.793 262.032 82.2656 261.798 82.6758C261.568 83.0859 261.249 83.4062 260.843 83.6367C260.437 83.8672 259.968 83.9824 259.437 83.9824H256.777ZM256.249 87V78.5449H257.304V87H256.249ZM263.478 87V78.5449H264.533V87H263.478Z" fill="#9692BD"/>
<path d="M135.929 104.758C135.613 104.338 135.353 103.892 135.147 103.42C134.942 102.948 134.789 102.445 134.688 101.911C134.591 101.377 134.542 100.808 134.542 100.202C134.542 99.5967 134.591 99.0286 134.688 98.498C134.786 97.9642 134.938 97.4613 135.143 96.9893C135.348 96.514 135.61 96.0664 135.929 95.6465H136.642C136.466 95.8711 136.301 96.1543 136.148 96.4961C135.999 96.8379 135.868 97.2155 135.758 97.6289C135.647 98.0391 135.561 98.4655 135.499 98.9082C135.437 99.3477 135.406 99.779 135.406 100.202C135.406 100.629 135.437 101.063 135.499 101.506C135.561 101.945 135.647 102.372 135.758 102.785C135.868 103.195 135.999 103.57 136.148 103.908C136.301 104.25 136.466 104.533 136.642 104.758H135.929ZM137.57 103V97.7363H138.419V98.5371H138.497C138.615 98.2539 138.794 98.0342 139.035 97.8779C139.279 97.7217 139.573 97.6436 139.918 97.6436C140.156 97.6436 140.369 97.6826 140.558 97.7607C140.747 97.8389 140.91 97.9479 141.046 98.0879C141.183 98.2246 141.292 98.3841 141.373 98.5664H141.452C141.546 98.3809 141.673 98.2197 141.832 98.083C141.992 97.943 142.176 97.8356 142.384 97.7607C142.596 97.6826 142.822 97.6436 143.063 97.6436C143.421 97.6436 143.724 97.7103 143.971 97.8438C144.222 97.9772 144.412 98.1725 144.542 98.4297C144.673 98.6836 144.738 98.9945 144.738 99.3623V103H143.888V99.5576C143.888 99.2972 143.847 99.0824 143.766 98.9131C143.688 98.7406 143.567 98.612 143.405 98.5273C143.242 98.4395 143.037 98.3955 142.789 98.3955C142.545 98.3955 142.332 98.4508 142.15 98.5615C141.968 98.6722 141.826 98.8203 141.725 99.0059C141.624 99.1882 141.574 99.3916 141.574 99.6162V103H140.724V99.4258C140.724 99.2174 140.678 99.0368 140.587 98.8838C140.499 98.7275 140.372 98.6071 140.206 98.5225C140.044 98.4378 139.852 98.3955 139.63 98.3955C139.402 98.3955 139.196 98.4557 139.01 98.5762C138.828 98.6966 138.683 98.8594 138.576 99.0645C138.471 99.2663 138.419 99.4909 138.419 99.7383V103H137.57ZM147.316 103.093C146.984 103.093 146.685 103.029 146.418 102.902C146.154 102.775 145.944 102.595 145.788 102.36C145.635 102.126 145.558 101.849 145.558 101.53V101.521C145.558 101.208 145.633 100.941 145.783 100.72C145.933 100.495 146.151 100.319 146.437 100.192C146.724 100.065 147.07 99.9906 147.477 99.9678L149.411 99.8506V100.529L147.58 100.646C147.179 100.669 146.887 100.752 146.701 100.896C146.519 101.039 146.428 101.241 146.428 101.501V101.511C146.428 101.778 146.528 101.986 146.73 102.136C146.932 102.282 147.186 102.355 147.492 102.355C147.782 102.355 148.039 102.299 148.263 102.185C148.488 102.067 148.664 101.91 148.791 101.711C148.921 101.512 148.986 101.288 148.986 101.037V99.3965C148.986 99.071 148.887 98.8236 148.688 98.6543C148.493 98.4818 148.198 98.3955 147.804 98.3955C147.489 98.3955 147.23 98.4525 147.028 98.5664C146.826 98.6771 146.691 98.835 146.623 99.04L146.618 99.0547H145.768L145.773 99.0254C145.819 98.7487 145.933 98.5078 146.115 98.3027C146.301 98.0944 146.54 97.9333 146.833 97.8193C147.126 97.7021 147.459 97.6436 147.834 97.6436C148.263 97.6436 148.626 97.7135 148.923 97.8535C149.222 97.9935 149.448 98.1953 149.601 98.459C149.758 98.7194 149.836 99.0319 149.836 99.3965V103H148.986V102.224H148.908C148.797 102.409 148.662 102.567 148.503 102.697C148.346 102.827 148.169 102.927 147.971 102.995C147.772 103.06 147.554 103.093 147.316 103.093ZM150.569 103L152.37 100.368L150.549 97.7363H151.55L152.8 99.6943H152.878L154.113 97.7363H155.066L153.279 100.334L155.09 103H154.094L152.849 101.013H152.771L151.521 103H150.569ZM160.555 103.166C160.118 103.166 159.729 103.08 159.388 102.907C159.046 102.735 158.771 102.5 158.562 102.204C158.357 101.905 158.237 101.568 158.201 101.193L158.196 101.14H159.041L159.046 101.179C159.075 101.403 159.157 101.608 159.29 101.794C159.427 101.976 159.604 102.121 159.822 102.229C160.044 102.336 160.291 102.39 160.564 102.39C160.877 102.39 161.152 102.321 161.39 102.185C161.627 102.045 161.813 101.853 161.946 101.608C162.08 101.364 162.146 101.084 162.146 100.769V100.759C162.146 100.446 162.078 100.17 161.941 99.9287C161.808 99.6846 161.624 99.4941 161.39 99.3574C161.155 99.2207 160.885 99.1523 160.579 99.1523C160.345 99.1523 160.128 99.1882 159.93 99.2598C159.734 99.3314 159.56 99.4388 159.407 99.582C159.345 99.6406 159.287 99.7041 159.231 99.7725C159.179 99.8408 159.131 99.9173 159.085 100.002H158.323L158.694 95.9541H162.615V96.7402H159.388L159.148 99.123H159.227C159.331 98.9635 159.459 98.8301 159.612 98.7227C159.765 98.6152 159.936 98.5339 160.125 98.4785C160.317 98.4199 160.519 98.3906 160.73 98.3906C161.173 98.3906 161.565 98.4932 161.907 98.6982C162.249 98.9001 162.518 99.1784 162.713 99.5332C162.908 99.8848 163.006 100.288 163.006 100.744V100.754C163.006 101.226 162.9 101.644 162.688 102.009C162.48 102.37 162.192 102.653 161.824 102.858C161.456 103.063 161.033 103.166 160.555 103.166ZM168.383 103.093C167.94 103.093 167.553 102.98 167.221 102.756C166.888 102.531 166.631 102.215 166.449 101.809C166.267 101.398 166.176 100.92 166.176 100.373V100.363C166.176 99.8132 166.267 99.3346 166.449 98.9277C166.631 98.5208 166.887 98.2051 167.216 97.9805C167.548 97.7559 167.937 97.6436 168.383 97.6436C168.624 97.6436 168.85 97.6826 169.061 97.7607C169.276 97.8356 169.467 97.9414 169.633 98.0781C169.799 98.2148 169.929 98.3776 170.023 98.5664H170.101V95.6465H170.951V103H170.101V102.16H170.023C169.916 102.355 169.781 102.523 169.618 102.663C169.455 102.8 169.27 102.906 169.061 102.98C168.853 103.055 168.627 103.093 168.383 103.093ZM168.578 102.341C168.897 102.341 169.172 102.261 169.403 102.102C169.634 101.942 169.812 101.716 169.935 101.423C170.059 101.127 170.121 100.777 170.121 100.373V100.363C170.121 99.9564 170.059 99.6064 169.935 99.3135C169.812 99.0205 169.634 98.7943 169.403 98.6348C169.172 98.4753 168.897 98.3955 168.578 98.3955C168.259 98.3955 167.984 98.4753 167.753 98.6348C167.525 98.791 167.349 99.0156 167.225 99.3086C167.105 99.6016 167.045 99.9531 167.045 100.363V100.373C167.045 100.78 167.105 101.132 167.225 101.428C167.349 101.721 167.525 101.947 167.753 102.106C167.984 102.263 168.259 102.341 168.578 102.341ZM174.345 103.093C173.847 103.093 173.416 102.984 173.051 102.766C172.69 102.544 172.41 102.23 172.211 101.823C172.016 101.416 171.918 100.933 171.918 100.373V100.363C171.918 99.8001 172.016 99.3151 172.211 98.9082C172.41 98.5013 172.69 98.1888 173.051 97.9707C173.416 97.7526 173.847 97.6436 174.345 97.6436C174.846 97.6436 175.278 97.7526 175.639 97.9707C176 98.1888 176.279 98.5013 176.474 98.9082C176.672 99.3151 176.772 99.8001 176.772 100.363V100.373C176.772 100.933 176.672 101.416 176.474 101.823C176.279 102.23 176 102.544 175.639 102.766C175.278 102.984 174.846 103.093 174.345 103.093ZM174.345 102.341C174.677 102.341 174.959 102.263 175.19 102.106C175.421 101.95 175.597 101.726 175.717 101.433C175.841 101.14 175.903 100.786 175.903 100.373V100.363C175.903 99.9466 175.841 99.5918 175.717 99.2988C175.597 99.0059 175.421 98.7829 175.19 98.6299C174.959 98.4736 174.677 98.3955 174.345 98.3955C174.013 98.3955 173.731 98.4736 173.5 98.6299C173.269 98.7829 173.092 99.0059 172.968 99.2988C172.848 99.5918 172.787 99.9466 172.787 100.363V100.373C172.787 100.786 172.848 101.14 172.968 101.433C173.092 101.726 173.269 101.95 173.5 102.106C173.731 102.263 174.013 102.341 174.345 102.341ZM179.843 103.093C179.352 103.093 178.925 102.98 178.564 102.756C178.203 102.531 177.923 102.214 177.724 101.804C177.526 101.394 177.426 100.91 177.426 100.354V100.344C177.426 99.7969 177.524 99.3216 177.719 98.918C177.918 98.5143 178.198 98.2018 178.559 97.9805C178.921 97.7559 179.347 97.6436 179.838 97.6436C180.265 97.6436 180.633 97.7184 180.942 97.8682C181.251 98.0179 181.499 98.2197 181.684 98.4736C181.87 98.7243 181.989 99.0059 182.041 99.3184L182.046 99.3477H181.201L181.196 99.333C181.131 99.0726 180.983 98.8512 180.752 98.6689C180.52 98.4867 180.216 98.3955 179.838 98.3955C179.523 98.3955 179.249 98.4753 179.018 98.6348C178.787 98.7943 178.608 99.0205 178.481 99.3135C178.357 99.6032 178.296 99.9466 178.296 100.344V100.354C178.296 100.757 178.359 101.109 178.486 101.408C178.613 101.704 178.792 101.934 179.023 102.097C179.254 102.259 179.526 102.341 179.838 102.341C180.193 102.341 180.483 102.264 180.708 102.111C180.932 101.958 181.093 101.735 181.191 101.442L181.201 101.413L182.041 101.408L182.031 101.462C181.959 101.778 181.832 102.059 181.65 102.307C181.468 102.551 181.227 102.743 180.927 102.883C180.628 103.023 180.267 103.093 179.843 103.093ZM184.648 103.093C184.251 103.093 183.918 103.018 183.647 102.868C183.377 102.715 183.174 102.494 183.037 102.204C182.904 101.911 182.837 101.558 182.837 101.145V97.7363H183.687V100.939C183.687 101.411 183.778 101.763 183.96 101.994C184.146 102.225 184.448 102.341 184.868 102.341C185.099 102.341 185.303 102.307 185.479 102.238C185.658 102.17 185.807 102.072 185.928 101.945C186.048 101.815 186.138 101.659 186.196 101.477C186.258 101.291 186.289 101.083 186.289 100.852V97.7363H187.139V103H186.289V102.214H186.211C186.126 102.399 186.011 102.559 185.864 102.692C185.718 102.823 185.542 102.922 185.337 102.99C185.135 103.059 184.906 103.093 184.648 103.093ZM188.326 103V97.7363H189.175V98.5371H189.253C189.371 98.2539 189.55 98.0342 189.79 97.8779C190.035 97.7217 190.329 97.6436 190.674 97.6436C190.912 97.6436 191.125 97.6826 191.314 97.7607C191.503 97.8389 191.665 97.9479 191.802 98.0879C191.939 98.2246 192.048 98.3841 192.129 98.5664H192.207C192.302 98.3809 192.429 98.2197 192.588 98.083C192.748 97.943 192.932 97.8356 193.14 97.7607C193.352 97.6826 193.578 97.6436 193.819 97.6436C194.177 97.6436 194.48 97.7103 194.727 97.8438C194.978 97.9772 195.168 98.1725 195.298 98.4297C195.428 98.6836 195.494 98.9945 195.494 99.3623V103H194.644V99.5576C194.644 99.2972 194.603 99.0824 194.522 98.9131C194.444 98.7406 194.323 98.612 194.161 98.5273C193.998 98.4395 193.793 98.3955 193.545 98.3955C193.301 98.3955 193.088 98.4508 192.906 98.5615C192.723 98.6722 192.582 98.8203 192.481 99.0059C192.38 99.1882 192.329 99.3916 192.329 99.6162V103H191.48V99.4258C191.48 99.2174 191.434 99.0368 191.343 98.8838C191.255 98.7275 191.128 98.6071 190.962 98.5225C190.8 98.4378 190.607 98.3955 190.386 98.3955C190.158 98.3955 189.952 98.4557 189.766 98.5762C189.584 98.6966 189.439 98.8594 189.331 99.0645C189.227 99.2663 189.175 99.4909 189.175 99.7383V103H188.326ZM198.775 103.093C198.274 103.093 197.843 102.982 197.481 102.761C197.123 102.539 196.846 102.227 196.651 101.823C196.459 101.416 196.363 100.938 196.363 100.388V100.383C196.363 99.8392 196.459 99.3623 196.651 98.9521C196.846 98.542 197.122 98.2214 197.476 97.9902C197.831 97.7591 198.246 97.6436 198.721 97.6436C199.2 97.6436 199.61 97.7542 199.952 97.9756C200.297 98.1969 200.561 98.5062 200.743 98.9033C200.929 99.2972 201.021 99.7562 201.021 100.28V100.612H196.803V99.9336H200.587L200.167 100.554V100.217C200.167 99.8034 200.105 99.4632 199.981 99.1963C199.858 98.9294 199.687 98.7308 199.469 98.6006C199.25 98.4671 199 98.4004 198.717 98.4004C198.433 98.4004 198.179 98.4704 197.955 98.6104C197.734 98.7471 197.558 98.9505 197.428 99.2207C197.297 99.4909 197.232 99.8229 197.232 100.217V100.554C197.232 100.928 197.296 101.249 197.423 101.516C197.55 101.779 197.73 101.983 197.965 102.126C198.199 102.266 198.476 102.336 198.795 102.336C199.032 102.336 199.239 102.303 199.415 102.238C199.591 102.173 199.735 102.09 199.849 101.989C199.963 101.888 200.043 101.786 200.089 101.682L200.108 101.638H200.958L200.948 101.677C200.902 101.856 200.821 102.03 200.704 102.199C200.59 102.365 200.442 102.517 200.26 102.653C200.077 102.787 199.861 102.894 199.61 102.976C199.363 103.054 199.084 103.093 198.775 103.093ZM201.94 103V97.7363H202.789V98.5273H202.867C203.001 98.2474 203.193 98.0309 203.444 97.8779C203.694 97.7217 204.013 97.6436 204.401 97.6436C204.993 97.6436 205.447 97.8128 205.763 98.1514C206.082 98.4867 206.241 98.9668 206.241 99.5918V103H205.392V99.7969C205.392 99.3216 205.291 98.9701 205.089 98.7422C204.89 98.5111 204.581 98.3955 204.161 98.3955C203.881 98.3955 203.639 98.4557 203.434 98.5762C203.229 98.6966 203.069 98.8675 202.955 99.0889C202.845 99.3102 202.789 99.5755 202.789 99.8848V103H201.94ZM209.25 103.039C208.709 103.039 208.317 102.93 208.073 102.712C207.832 102.494 207.712 102.134 207.712 101.633V98.4395H206.881V97.7363H207.712V96.374H208.59V97.7363H209.743V98.4395H208.59V101.418C208.59 101.727 208.649 101.95 208.766 102.087C208.883 102.22 209.079 102.287 209.352 102.287C209.427 102.287 209.49 102.285 209.543 102.282C209.598 102.279 209.665 102.274 209.743 102.268V102.99C209.661 103.003 209.58 103.015 209.499 103.024C209.417 103.034 209.334 103.039 209.25 103.039ZM211.071 104.758H210.358C210.534 104.533 210.697 104.25 210.847 103.908C211 103.57 211.132 103.195 211.242 102.785C211.353 102.372 211.439 101.945 211.501 101.506C211.563 101.063 211.594 100.629 211.594 100.202C211.594 99.779 211.563 99.3477 211.501 98.9082C211.439 98.4655 211.353 98.0391 211.242 97.6289C211.132 97.2155 211 96.8379 210.847 96.4961C210.697 96.1543 210.534 95.8711 210.358 95.6465H211.071C211.39 96.0664 211.652 96.514 211.857 96.9893C212.062 97.4613 212.214 97.9642 212.312 98.498C212.409 99.0286 212.458 99.5967 212.458 100.202C212.458 100.808 212.408 101.377 212.307 101.911C212.209 102.445 212.058 102.948 211.853 103.42C211.651 103.892 211.39 104.338 211.071 104.758Z" fill="#9692BD"/>
</svg>
