<svg width="46" height="46" viewBox="0 0 46 46" fill="none" xmlns="http://www.w3.org/2000/svg">
<rect width="46" height="46" rx="12" fill="white"/>
<path d="M30 22H24V16C24 15.7348 23.8946 15.4804 23.7071 15.2929C23.5196 15.1054 23.2652 15 23 15C22.7348 15 22.4804 15.1054 22.2929 15.2929C22.1054 15.4804 22 15.7348 22 16V22H16C15.7348 22 15.4804 22.1054 15.2929 22.2929C15.1054 22.4804 15 22.7348 15 23C15 23.2652 15.1054 23.5196 15.2929 23.7071C15.4804 23.8946 15.7348 24 16 24H22V30C22 30.2652 22.1054 30.5196 22.2929 30.7071C22.4804 30.8946 22.7348 31 23 31C23.2652 31 23.5196 30.8946 23.7071 30.7071C23.8946 30.5196 24 30.2652 24 30V24H30C30.2652 24 30.5196 23.8946 30.7071 23.7071C30.8946 23.5196 31 23.2652 31 23C31 22.7348 30.8946 22.4804 30.7071 22.2929C30.5196 22.1054 30.2652 22 30 22Z" fill="#00005B"/>
</svg>
