<svg width="24" height="24" viewBox="0 0 24 24" fill="none" xmlns="http://www.w3.org/2000/svg">
<path fill-rule="evenodd" clip-rule="evenodd" d="M4.14286 1.99976C3.00857 1.99976 2 2.8669 2 4.04261V10.6912C2 11.8683 3.00857 12.734 4.14286 12.734H4.97429V9.8569C4.97429 9.21976 5.24571 8.62261 5.70714 8.19404C6.16814 7.76882 6.77284 7.53357 7.4 7.53547H16.6C17.2229 7.53547 17.8329 7.76547 18.2929 8.19261C18.7529 8.62261 19.0257 9.22118 19.0257 9.8569V12.7355H19.8571C20.9914 12.7355 22 11.8683 22 10.6926V4.04261C22 2.8669 20.9914 1.99976 19.8571 1.99976H4.14286ZM17.24 12.7355H6.76V9.8569C6.76 9.73547 6.81143 9.60547 6.92429 9.49976C7.05489 9.38275 7.22466 9.31902 7.4 9.32118H16.6C16.7748 9.31938 16.944 9.38308 17.0743 9.49976C17.1886 9.60547 17.24 9.73547 17.24 9.8569V12.7355ZM8.78571 15.9269C8.78571 15.6427 8.67283 15.3702 8.4719 15.1693C8.27097 14.9684 7.99845 14.8555 7.71429 14.8555C7.43013 14.8555 7.1576 14.9684 6.95667 15.1693C6.75574 15.3702 6.64286 15.6427 6.64286 15.9269V17.4983C6.64286 17.7446 6.54503 17.9808 6.37088 18.1549C6.19674 18.3291 5.96056 18.4269 5.71429 18.4269H5.57143C5.28727 18.4269 5.01475 18.5398 4.81381 18.7407C4.61288 18.9416 4.5 19.2142 4.5 19.4983C4.5 19.7825 4.61288 20.055 4.81381 20.2559C5.01475 20.4569 5.28727 20.5698 5.57143 20.5698H5.71429C6.52888 20.5698 7.31011 20.2462 7.88611 19.6702C8.46212 19.0942 8.78571 18.3129 8.78571 17.4983V15.9269ZM16.2857 14.8555C16.0016 14.8555 15.729 14.9684 15.5281 15.1693C15.3272 15.3702 15.2143 15.6427 15.2143 15.9269V17.4983C15.2143 18.3129 15.5379 19.0942 16.1139 19.6702C16.6899 20.2462 17.4711 20.5698 18.2857 20.5698H18.4286C18.7127 20.5698 18.9853 20.4569 19.1862 20.2559C19.3871 20.055 19.5 19.7825 19.5 19.4983C19.5 19.2142 19.3871 18.9416 19.1862 18.7407C18.9853 18.5398 18.7127 18.4269 18.4286 18.4269H18.2857C18.0394 18.4269 17.8033 18.3291 17.6291 18.1549C17.455 17.9808 17.3571 17.7446 17.3571 17.4983V15.9269C17.3571 15.6427 17.2443 15.3702 17.0433 15.1693C16.8424 14.9684 16.5699 14.8555 16.2857 14.8555ZM13.0714 15.9269C13.0714 15.6427 12.9585 15.3702 12.7576 15.1693C12.5567 14.9684 12.2842 14.8555 12 14.8555C11.7158 14.8555 11.4433 14.9684 11.2424 15.1693C11.0415 15.3702 10.9286 15.6427 10.9286 15.9269V20.9269C10.9286 21.2111 11.0415 21.4836 11.2424 21.6845C11.4433 21.8854 11.7158 21.9983 12 21.9983C12.2842 21.9983 12.5567 21.8854 12.7576 21.6845C12.9585 21.4836 13.0714 21.2111 13.0714 20.9269V15.9269Z" fill="#C4C4C4"/>
</svg>
