<svg width="25" height="24" viewBox="0 0 25 24" fill="none" xmlns="http://www.w3.org/2000/svg">
<path d="M19.9691 20.2487C19.0483 21.6126 18.0721 22.9435 16.5855 22.9655C15.099 22.9985 14.622 22.0966 12.9358 22.0966C11.2384 22.0966 10.717 22.9435 9.30815 22.9985C7.85489 23.0535 6.75662 21.5466 5.82476 20.2157C3.92776 17.4989 2.4745 12.4942 4.42697 9.12846C5.39211 7.45657 7.12271 6.40064 8.99753 6.36764C10.4175 6.34564 11.7709 7.32458 12.6473 7.32458C13.5126 7.32458 15.1545 6.14766 16.874 6.32365C17.5951 6.35664 19.6141 6.60963 20.912 8.5015C20.8122 8.5675 18.5047 9.90941 18.5269 12.6922C18.5602 16.014 21.4667 17.1249 21.5 17.1359C21.4667 17.2129 21.0341 18.7198 19.9691 20.2487ZM13.6346 2.64989C14.4445 1.73695 15.7868 1.044 16.8962 1C17.0404 2.28691 16.519 3.58483 15.7424 4.50877C14.977 5.4437 13.7123 6.16966 12.4698 6.07066C12.3034 4.80575 12.9247 3.48583 13.6346 2.64989Z" fill="white"/>
</svg>
