<svg width="13" height="13" viewBox="0 0 13 13" fill="none" xmlns="http://www.w3.org/2000/svg">
<path fill-rule="evenodd" clip-rule="evenodd" d="M8.88923 1.49971L8.88976 1.90576C10.3819 2.0227 11.3675 3.03944 11.3691 4.59866L11.375 9.16262C11.3771 10.8626 10.3091 11.9086 8.59723 11.9113L4.4156 11.9167C2.7144 11.9189 1.63303 10.848 1.63089 9.14313L1.625 4.63276C1.62286 3.06326 2.57374 2.04922 4.06584 1.91225L4.06531 1.50621C4.06477 1.26799 4.24126 1.08879 4.47657 1.08879C4.71188 1.08825 4.88837 1.26691 4.8889 1.50512L4.88944 1.8841L8.06617 1.87977L8.06563 1.50079C8.0651 1.26258 8.24158 1.08392 8.47689 1.08338C8.70686 1.08283 8.88869 1.26149 8.88923 1.49971ZM2.44914 4.80015L10.5461 4.78932V4.59983C10.5231 3.43583 9.93905 2.82514 8.89084 2.73418L8.89137 3.15106C8.89137 3.38386 8.71007 3.56847 8.48011 3.56847C8.2448 3.56902 8.06778 3.38494 8.06778 3.15214L8.06724 2.71361L4.89051 2.71794L4.89105 3.15593C4.89105 3.38927 4.7151 3.57335 4.47979 3.57335C4.24447 3.57389 4.06745 3.39036 4.06745 3.15701L4.06692 2.74014C3.02405 2.84463 2.447 3.45749 2.44861 4.63178L2.44914 4.80015ZM8.25499 7.26088V7.26684C8.26034 7.51588 8.46356 7.70483 8.71011 7.69941C8.95077 7.69346 9.14276 7.48719 9.13741 7.23814C9.12618 6.99993 8.93312 6.80557 8.69299 6.80611C8.44698 6.81152 8.25445 7.01184 8.25499 7.26088ZM8.69668 9.69176C8.45067 9.68634 8.25226 9.48115 8.25172 9.23211C8.24637 8.98307 8.44372 8.7768 8.68973 8.77084H8.69507C8.94643 8.77084 9.15019 8.97603 9.15019 9.23049C9.15073 9.48494 8.9475 9.69121 8.69668 9.69176ZM6.05156 7.26961C6.06226 7.51865 6.26602 7.71301 6.51202 7.70218C6.75269 7.69081 6.94468 7.48508 6.93398 7.23604C6.9281 6.99241 6.73022 6.80292 6.48956 6.80347C6.24355 6.81429 6.05102 7.02057 6.05156 7.26961ZM6.5142 9.66744C6.2682 9.67827 6.06497 9.48391 6.05374 9.23487C6.05374 8.98583 6.24573 8.7801 6.49174 8.76873C6.7324 8.76819 6.93082 8.95767 6.93616 9.20076C6.9474 9.45034 6.75487 9.65607 6.5142 9.66744ZM3.8482 7.28852C3.85889 7.53756 4.06265 7.73246 4.30866 7.72109C4.54932 7.71027 4.74132 7.50399 4.73008 7.25495C4.72474 7.01132 4.52686 6.82184 4.28566 6.82238C4.03965 6.8332 3.84766 7.03948 3.8482 7.28852ZM4.31078 9.66998C4.06477 9.68135 3.86154 9.48644 3.85031 9.2374C3.84978 8.98836 4.04231 8.78209 4.28831 8.77126C4.52898 8.77072 4.72739 8.96021 4.73274 9.20384C4.74397 9.45288 4.55197 9.65915 4.31078 9.66998Z" fill="#B0B0B0"/>
</svg>
