<svg width="21" height="21" viewBox="0 0 21 21" fill="none" xmlns="http://www.w3.org/2000/svg">
<path fill-rule="evenodd" clip-rule="evenodd" d="M3.0625 9.02804C3.0625 5.00315 6.4259 1.75 10.4943 1.75C14.5741 1.75 17.9375 5.00315 17.9375 9.02804C17.9375 11.0562 17.1999 12.9392 15.9858 14.5351C14.6465 16.2956 12.9956 17.8294 11.1375 19.0334C10.7122 19.3116 10.3284 19.3326 9.86164 19.0334C7.99289 17.8294 6.34208 16.2956 5.01419 14.5351C3.79924 12.9392 3.0625 11.0562 3.0625 9.02804ZM8.04504 9.25468C8.04504 10.603 9.14529 11.6635 10.4944 11.6635C11.8443 11.6635 12.9551 10.603 12.9551 9.25468C12.9551 7.91684 11.8443 6.80475 10.4944 6.80475C9.14529 6.80475 8.04504 7.91684 8.04504 9.25468Z" fill="#9A9A9A"/>
</svg>
