<svg width="24" height="24" viewBox="0 0 24 24" fill="none" xmlns="http://www.w3.org/2000/svg">
<path d="M21 9.75C21.3978 9.75 21.7794 9.90804 22.0607 10.1893C22.342 10.4706 22.5 10.8522 22.5 11.25V15.798C22.5 15.9842 22.426 16.1627 22.2944 16.2944C22.1627 16.426 21.9842 16.5 21.798 16.5H21V17.25C21 17.6478 20.842 18.0294 20.5607 18.3107C20.2794 18.592 19.8978 18.75 19.5 18.75C19.1022 18.75 18.7206 18.592 18.4393 18.3107C18.158 18.0294 18 17.6478 18 17.25V16.5H6V17.25C6 17.6478 5.84196 18.0294 5.56066 18.3107C5.27936 18.592 4.89782 18.75 4.5 18.75C4.10218 18.75 3.72064 18.592 3.43934 18.3107C3.15804 18.0294 3 17.6478 3 17.25V16.5H2.202C2.01582 16.5 1.83726 16.426 1.70561 16.2944C1.57396 16.1627 1.5 15.9842 1.5 15.798V11.25C1.5 10.8522 1.65804 10.4706 1.93934 10.1893C2.22064 9.90804 2.60218 9.75 3 9.75C3.39782 9.75 3.77936 9.90804 4.06066 10.1893C4.34196 10.4706 4.5 10.8522 4.5 11.25V12.75H19.5V11.25C19.5 10.8522 19.658 10.4706 19.9393 10.1893C20.2206 9.90804 20.6022 9.75 21 9.75ZM6 11.25C6 10.4544 5.68393 9.69129 5.12132 9.12868C4.55871 8.56607 3.79565 8.25 3 8.25V6.75C3 6.35218 3.15804 5.97064 3.43934 5.68934C3.72064 5.40804 4.10218 5.25 4.5 5.25H19.5C19.8978 5.25 20.2794 5.40804 20.5607 5.68934C20.842 5.97064 21 6.35218 21 6.75V8.25C20.2044 8.25 19.4413 8.56607 18.8787 9.12868C18.3161 9.69129 18 10.4544 18 11.25H6Z" fill="#C4C4C4"/>
</svg>
