<svg width="25" height="24" viewBox="0 0 25 24" fill="none" xmlns="http://www.w3.org/2000/svg">
<path d="M9.25978 20.7733V17.7156C9.25978 16.9351 9.89717 16.3023 10.6834 16.3023H13.5576C13.9352 16.3023 14.2973 16.4512 14.5643 16.7163C14.8313 16.9813 14.9813 17.3408 14.9813 17.7156V20.7733C14.9789 21.0978 15.1071 21.4099 15.3374 21.6402C15.5677 21.8705 15.8811 22 16.2079 22H18.1688C19.0846 22.0023 19.9638 21.6428 20.6122 21.0008C21.2606 20.3588 21.625 19.487 21.625 18.5778V9.86686C21.625 9.13246 21.2971 8.43584 20.7296 7.96467L14.059 2.67587C12.8987 1.74856 11.2361 1.7785 10.1104 2.74698L3.59201 7.96467C2.99774 8.42195 2.64255 9.12064 2.625 9.86686V18.5689C2.625 20.4639 4.17238 22 6.08117 22H7.99729C8.67623 22 9.228 21.4562 9.23292 20.7822L9.25978 20.7733Z" fill="#00005B"/>
</svg>
