<svg width="24" height="24" viewBox="0 0 24 24" fill="none" xmlns="http://www.w3.org/2000/svg">
<path d="M10.7745 3.16948C10.8604 3.0993 10.9608 3.04904 11.0684 3.02233C11.176 2.99561 11.2883 2.9931 11.397 3.01498L18.897 4.51498C19.067 4.54895 19.2199 4.64074 19.3298 4.77473C19.4398 4.90873 19.4999 5.07666 19.5 5.24998V18.7455C19.4999 18.9188 19.4398 19.0867 19.3298 19.2207C19.2199 19.3547 19.067 19.4465 18.897 19.4805L11.397 20.9805C11.2882 21.0022 11.176 20.9996 11.0684 20.9727C10.9608 20.9458 10.8604 20.8954 10.7746 20.8251C10.6889 20.7548 10.6197 20.6664 10.5722 20.5662C10.5247 20.4659 10.5001 20.3564 10.5 20.2455V3.74998M15 11.997C15 11.7981 14.921 11.6073 14.7803 11.4666C14.6397 11.326 14.4489 11.247 14.25 11.247C14.0511 11.247 13.8603 11.326 13.7197 11.4666C13.579 11.6073 13.5 11.7981 13.5 11.997C13.5 12.1959 13.579 12.3867 13.7197 12.5273C13.8603 12.668 14.0511 12.747 14.25 12.747C14.4489 12.747 14.6397 12.668 14.7803 12.5273C14.921 12.3867 15 12.1959 15 11.997ZM9 4.49998H5.25C5.05109 4.49998 4.86032 4.579 4.71967 4.71965C4.57902 4.8603 4.5 5.05107 4.5 5.24998V18.7455C4.5 18.9444 4.57902 19.1352 4.71967 19.2758C4.86032 19.4165 5.05109 19.4955 5.25 19.4955H9V4.49998ZM10.7745 3.16948C10.6886 3.23988 10.6195 3.32848 10.572 3.42887C10.5245 3.52925 10.4999 3.63893 10.5 3.74998L10.7745 3.16948Z" fill="#00005B"/>
</svg>
