<svg width="38" height="38" viewBox="0 0 38 38" fill="none" xmlns="http://www.w3.org/2000/svg">
<g filter="url(#filter0_b_105_990)">
<rect width="38" height="38" rx="19" fill="#FAFAFA" fill-opacity="1"/>
<rect width="38" height="38" rx="19" fill="white" style="mix-blend-mode:color-dodge"/>
<rect x="0.5" y="0.5" width="37" height="37" rx="18.5" stroke="#F3F5F7"/>
<path fill-rule="evenodd" clip-rule="evenodd" d="M15.7254 10.75C16.1104 10.75 16.423 11.0565 16.423 11.4349C16.423 11.8125 16.1113 12.119 15.7254 12.119L14.2321 12.1199C12.9928 12.1217 11.9845 13.1114 11.9845 14.3276V16.0318C11.9845 16.4094 11.671 16.7168 11.286 16.7168C10.901 16.7168 10.5884 16.4094 10.5884 16.0318V14.3276C10.5884 12.3572 12.2228 10.7527 14.2312 10.7509L15.7245 10.75H15.7254ZM22.3005 10.7502H23.7608C25.7747 10.7502 27.4118 12.3556 27.4118 14.3305V16.0321C27.4118 16.4096 27.1002 16.717 26.7143 16.717C26.3293 16.717 26.0167 16.4096 26.0167 16.0321V14.3305C26.0167 13.1107 25.0047 12.1183 23.7608 12.1183H22.3005C21.9155 12.1183 21.6029 11.8127 21.6029 11.4352C21.6029 11.0567 21.9155 10.7502 22.3005 10.7502ZM21.5322 14.1808H16.4685C15.3099 14.1925 14.3785 15.121 14.3886 16.2581V17.3997C14.3914 17.5327 14.5005 17.6415 14.6361 17.646H23.3628C23.4994 17.6424 23.6085 17.5336 23.613 17.3997V16.2581C23.614 15.7089 23.3976 15.1812 23.0071 14.7884C22.6194 14.3992 22.0868 14.1808 21.5322 14.1808ZM9.61513 19.0378H28.3857C28.7707 19.0378 29.0833 19.3443 29.0833 19.7228C29.0833 20.1003 28.7707 20.4059 28.3857 20.4059H27.4122V23.6689C27.4122 25.6446 25.7741 27.25 23.7611 27.25H22.3009C21.915 27.25 21.6024 26.9435 21.6024 26.5651C21.6024 26.1875 21.915 25.881 22.3009 25.881H23.7611C25.005 25.881 26.017 24.8896 26.017 23.6689V20.4059H23.6126V21.3147C23.6218 22.4518 22.6914 23.3812 21.5318 23.392H16.4681C15.3095 23.3812 14.379 22.4518 14.3882 21.3147V20.4059H11.9838V23.6725C11.9838 24.8887 12.993 25.8783 14.2333 25.8801L15.7256 25.881C16.1106 25.881 16.4232 26.1875 16.4232 26.5651C16.4223 26.9435 16.1106 27.25 15.7247 27.25L14.2315 27.2491C12.223 27.2473 10.5877 25.6428 10.5877 23.6725V20.4059H9.61513C9.23013 20.4059 8.91663 20.1003 8.91663 19.7228C8.91663 19.3443 9.23013 19.0378 9.61513 19.0378Z" fill="#00005B"/>
</g>
<defs>
<filter id="filter0_b_105_990" x="-10" y="-10" width="58" height="58" filterUnits="userSpaceOnUse" color-interpolation-filters="sRGB">
<feFlood flood-opacity="0" result="BackgroundImageFix"/>
<feGaussianBlur in="BackgroundImageFix" stdDeviation="5"/>
<feComposite in2="SourceAlpha" operator="in" result="effect1_backgroundBlur_105_990"/>
<feBlend mode="normal" in="SourceGraphic" in2="effect1_backgroundBlur_105_990" result="shape"/>
</filter>
</defs>
</svg>
