<svg width="21" height="21" viewBox="0 0 21 21" fill="none" xmlns="http://www.w3.org/2000/svg">
<path fill-rule="evenodd" clip-rule="evenodd" d="M14.1385 7.20374C14.1385 9.25972 12.4995 10.9083 10.4554 10.9083C8.41131 10.9083 6.77228 9.25972 6.77228 7.20374C6.77228 5.14698 8.41131 3.5 10.4554 3.5C12.4995 3.5 14.1385 5.14698 14.1385 7.20374ZM10.4554 17.4999C7.45316 17.4999 4.88962 17.024 4.88962 15.1201C4.88962 13.2154 7.4367 12.7221 10.4554 12.7221C13.4577 12.7221 16.0213 13.1981 16.0213 15.1027C16.0213 17.0066 13.4742 17.4999 10.4554 17.4999ZM15.7124 7.2705C15.7124 8.31858 15.3998 9.29495 14.8514 10.1066C14.7949 10.1901 14.8451 10.3028 14.9446 10.3202C15.0817 10.3438 15.2235 10.3572 15.3677 10.3612C16.8054 10.399 18.0957 9.46831 18.4522 8.06719C18.9803 5.98601 17.4298 4.11758 15.4554 4.11758C15.2407 4.11758 15.0355 4.14044 14.8357 4.18141C14.8083 4.18772 14.7793 4.20033 14.7636 4.22476C14.7448 4.2547 14.7589 4.29489 14.7777 4.3209C15.3708 5.157 15.7124 6.17671 15.7124 7.2705ZM18.0933 11.8234C19.0594 12.0133 19.6948 12.401 19.958 12.9645C20.1805 13.4271 20.1805 13.9637 19.958 14.4255C19.5553 15.2994 18.2571 15.58 17.7525 15.6525C17.6483 15.6682 17.5645 15.5776 17.5755 15.4728C17.8332 13.0512 15.7829 11.903 15.2525 11.639C15.2297 11.6272 15.225 11.6091 15.2274 11.598C15.2289 11.5902 15.2383 11.5776 15.2556 11.5752C16.4034 11.5539 17.6374 11.7115 18.0933 11.8234ZM5.63254 10.3612C5.7767 10.3572 5.91773 10.3446 6.05562 10.3202C6.15512 10.3028 6.20526 10.1901 6.14885 10.1066C5.60042 9.29495 5.28781 8.31858 5.28781 7.2705C5.28781 6.17671 5.62941 5.157 6.2225 4.3209C6.2413 4.29489 6.25462 4.2547 6.2366 4.22476C6.22093 4.20112 6.19116 4.18772 6.16452 4.18141C5.96395 4.14044 5.75868 4.11758 5.54401 4.11758C3.56964 4.11758 2.01914 5.98601 2.54799 8.06719C2.90447 9.46831 4.19486 10.399 5.63254 10.3612ZM5.77232 11.5977C5.77467 11.6095 5.76997 11.6268 5.74803 11.6394C5.21684 11.9034 3.16648 13.0516 3.42424 15.4724C3.43521 15.578 3.35216 15.6679 3.24796 15.6529C2.7434 15.5804 1.44518 15.2999 1.04247 14.4259C0.819177 13.9634 0.819177 13.4275 1.04247 12.9649C1.30572 12.4015 1.94033 12.0138 2.90636 11.8231C3.36313 11.7119 4.59632 11.5543 5.7449 11.5756C5.76214 11.578 5.77075 11.5906 5.77232 11.5977Z" fill="#9A9A9A"/>
</svg>
