<?xml version="1.0" encoding="UTF-8"?>
<svg version="1.1" xmlns="http://www.w3.org/2000/svg" width="512" height="512">
<path d="M0 0 C0.93368408 -0.00067474 1.86736816 -0.00134949 2.8293457 -0.00204468 C18.0723507 0.01540591 32.87335826 0.74874685 47.9375 3.25 C48.98147949 3.41628906 50.02545898 3.58257812 51.10107422 3.75390625 C130.07250211 16.61221201 199.59686531 61.18954163 249.8125 122.625 C250.39725098 123.34034912 250.98200195 124.05569824 251.58447266 124.79272461 C252.13151855 125.46698486 252.67856445 126.14124512 253.2421875 126.8359375 C253.73702637 127.4448584 254.23186523 128.0537793 254.74169922 128.68115234 C257.05258471 131.71295107 257.33261087 134.30697512 257.27685547 138.11035156 C256.67504751 141.90477239 254.46730597 144.29466382 252 147.125 C251.25218262 148.02726318 251.25218262 148.02726318 250.48925781 148.94775391 C248.99466652 150.7362148 247.47342492 152.49698142 245.9375 154.25 C245.11636719 155.1884375 244.29523438 156.126875 243.44921875 157.09375 C242.04580673 158.66440802 240.63225888 160.22614688 239.203125 161.7734375 C237.32890723 163.8221514 235.51134751 165.90090693 233.69921875 168.00390625 C229.81188437 172.45786199 225.69026183 176.64486785 221.5 180.8125 C220.78779297 181.52857422 220.07558594 182.24464844 219.34179688 182.98242188 C214.70503962 187.61075632 209.9300101 192.00873778 204.9375 196.25 C204.34203369 196.75748779 203.74656738 197.26497559 203.13305664 197.7878418 C187.25330183 211.19328381 170.38062011 222.9786459 152.1796875 233.01367188 C150.04939137 234.1883038 147.93099883 235.38239537 145.8125 236.578125 C111.04789355 255.89086469 72.21760789 266.47089319 32.9375 271.25 C32.10387939 271.3545752 31.27025879 271.45915039 30.41137695 271.56689453 C20.93786427 272.59748587 11.39290745 272.49381164 1.875 272.5 C0.94131592 272.50067474 0.00763184 272.50134949 -0.9543457 272.50204468 C-16.1973507 272.48459409 -30.99835826 271.75125315 -46.0625 269.25 C-47.10647949 269.08371094 -48.15045898 268.91742188 -49.22607422 268.74609375 C-128.19750211 255.88778799 -197.72186531 211.31045837 -247.9375 149.875 C-248.52225098 149.15965088 -249.10700195 148.44430176 -249.70947266 147.70727539 C-250.5300415 146.69588501 -250.5300415 146.69588501 -251.3671875 145.6640625 C-252.1094458 144.75068115 -252.1094458 144.75068115 -252.86669922 143.81884766 C-255.17758471 140.78704893 -255.45761087 138.19302488 -255.40185547 134.38964844 C-254.80004751 130.59522761 -252.59230597 128.20533618 -250.125 125.375 C-249.62645508 124.77349121 -249.12791016 124.17198242 -248.61425781 123.55224609 C-247.11966652 121.7637852 -245.59842492 120.00301858 -244.0625 118.25 C-243.24136719 117.3115625 -242.42023438 116.373125 -241.57421875 115.40625 C-240.17080673 113.83559198 -238.75725888 112.27385312 -237.328125 110.7265625 C-235.45390723 108.6778486 -233.63634751 106.59909307 -231.82421875 104.49609375 C-227.93688437 100.04213801 -223.81526183 95.85513215 -219.625 91.6875 C-218.91279297 90.97142578 -218.20058594 90.25535156 -217.46679688 89.51757812 C-212.83003962 84.88924368 -208.0550101 80.49126222 -203.0625 76.25 C-202.46703369 75.74251221 -201.87156738 75.23502441 -201.25805664 74.7121582 C-185.37830183 61.30671619 -168.50562011 49.5213541 -150.3046875 39.48632812 C-148.17439137 38.3116962 -146.05599883 37.11760463 -143.9375 35.921875 C-109.17289355 16.60913531 -70.34260789 6.02910681 -31.0625 1.25 C-30.22887939 1.1454248 -29.39525879 1.04084961 -28.53637695 0.93310547 C-19.06286427 -0.09748587 -9.51790745 0.00618836 0 0 Z M-18.0625 16.25 C-18.0625 16.58 -18.0625 16.91 -18.0625 17.25 C-16.0825 17.25 -14.1025 17.25 -12.0625 17.25 C-12.0625 16.92 -12.0625 16.59 -12.0625 16.25 C-14.0425 16.25 -16.0225 16.25 -18.0625 16.25 Z M12.9375 16.25 C12.9375 16.58 12.9375 16.91 12.9375 17.25 C15.2475 17.25 17.5575 17.25 19.9375 17.25 C19.9375 16.92 19.9375 16.59 19.9375 16.25 C17.6275 16.25 15.3175 16.25 12.9375 16.25 Z M-183.0625 81.25 C-184.44115234 82.33861328 -184.44115234 82.33861328 -185.84765625 83.44921875 C-200.97802424 95.57528345 -215.72004847 109.2710154 -228.0625 124.25 C-228.85914063 125.21550781 -229.65578125 126.18101562 -230.4765625 127.17578125 C-232.68027642 129.86049156 -234.87523799 132.55188088 -237.0625 135.25 C-228.23769123 154.83567253 -204.66461081 174.18167181 -188.0625 187.25 C-186.93163721 188.17991743 -185.80283909 189.11234962 -184.67578125 190.046875 C-144.04921295 223.52759847 -94.16199273 245.43463117 -42.25 253.625 C-40.66795776 253.87672974 -40.66795776 253.87672974 -39.05395508 254.13354492 C-32.34639988 255.12084334 -25.83850523 255.4457271 -19.0625 255.25 C-19.0625 254.92 -19.0625 254.59 -19.0625 254.25 C-20.11566406 254.03085937 -21.16882813 253.81171875 -22.25390625 253.5859375 C-43.29975576 249.03554999 -61.84474328 240.55335036 -78.0625 226.25 C-78.69285156 225.75113281 -79.32320312 225.25226563 -79.97265625 224.73828125 C-101.62785865 207.52264198 -112.83602465 179.52496497 -117.625 153.15234375 C-119.32795366 137.96260534 -118.99131464 122.04642288 -115.0625 107.25 C-114.89621094 106.60450195 -114.72992188 105.95900391 -114.55859375 105.29394531 C-109.49435048 86.04044265 -99.84700582 68.61214226 -86.0625 54.25 C-85.258125 53.404375 -84.45375 52.55875 -83.625 51.6875 C-82.779375 50.883125 -81.93375 50.07875 -81.0625 49.25 C-80.41539062 48.60804688 -79.76828125 47.96609375 -79.1015625 47.3046875 C-62.53190813 31.50571473 -41.30752979 22.61955942 -19.0625 18.25 C-19.0625 17.92 -19.0625 17.59 -19.0625 17.25 C-77.37479778 15.63757933 -138.47192533 45.54200993 -183.0625 81.25 Z M19.9375 17.25 C19.9375 17.58 19.9375 17.91 19.9375 18.25 C20.80890625 18.42015625 21.6803125 18.5903125 22.578125 18.765625 C35.07235955 21.30774199 46.89300359 24.68705646 57.9375 31.25 C59.43248913 34.23997825 59.05327446 36.95042775 58.9375 40.25 C58.6075 41.24 58.2775 42.23 57.9375 43.25 C52.52397761 43.69373134 48.94197053 43.50605332 44.0625 41.0625 C38.88273726 38.4836394 33.70337755 36.93801729 28.125 35.5 C27.31240723 35.28964111 26.49981445 35.07928223 25.66259766 34.86254883 C-0.77775712 28.20206383 -29.04226092 32.48348204 -52.56640625 46.23046875 C-59.33557821 50.56170138 -65.27245293 55.69628138 -71.0625 61.25 C-71.92875 62.075 -72.795 62.9 -73.6875 63.75 C-74.47125 64.575 -75.255 65.4 -76.0625 66.25 C-76.95001953 67.16265625 -76.95001953 67.16265625 -77.85546875 68.09375 C-95.835454 87.29094895 -103.82501929 113.06690109 -103.53100586 139.03125 C-102.62773321 165.78510102 -92.54098483 188.98519666 -74.0625 208.25 C-73.2375 209.11625 -72.4125 209.9825 -71.5625 210.875 C-70.7375 211.65875 -69.9125 212.4425 -69.0625 213.25 C-68.14984375 214.13751953 -68.14984375 214.13751953 -67.21875 215.04296875 C-48.02155105 233.022954 -22.24559891 241.01251929 3.71875 240.71850586 C30.47260102 239.81523321 53.67269666 229.72848483 72.9375 211.25 C73.80375 210.425 74.67 209.6 75.5625 208.75 C76.34625 207.925 77.13 207.1 77.9375 206.25 C78.52917969 205.6415625 79.12085938 205.033125 79.73046875 204.40625 C98.55258675 184.30990738 106.1139354 157.5035695 105.25 130.43359375 C104.11490584 108.24655678 95.7871088 86.68295469 81.375 69.75 C78.73121969 66.58483672 77.98197869 65.50474157 77.25 61.3125 C77.9375 58.25 77.9375 58.25 79.125 56.375 C81.50792043 54.89594594 83.12167448 54.38408693 85.9375 54.25 C100.2782255 61.42036275 109.33393691 82.84738569 114.30859375 97.26123047 C121.17086366 118.96156071 122.80664396 143.14604654 116.9375 165.25 C116.77121094 165.89549805 116.60492188 166.54099609 116.43359375 167.20605469 C111.36935048 186.45955735 101.72200582 203.88785774 87.9375 218.25 C87.133125 219.095625 86.32875 219.94125 85.5 220.8125 C84.654375 221.616875 83.80875 222.42125 82.9375 223.25 C82.29039062 223.89195312 81.64328125 224.53390625 80.9765625 225.1953125 C64.40690813 240.99428527 43.18252979 249.88044058 20.9375 254.25 C20.9375 254.58 20.9375 254.91 20.9375 255.25 C79.24979778 256.86242067 140.34692533 226.95799007 184.9375 191.25 C185.85660156 190.52425781 186.77570313 189.79851562 187.72265625 189.05078125 C202.85302424 176.92471655 217.59504847 163.2289846 229.9375 148.25 C231.13246094 146.80173828 231.13246094 146.80173828 232.3515625 145.32421875 C234.55527642 142.63950844 236.75023799 139.94811912 238.9375 137.25 C230.11269123 117.66432747 206.53961081 98.31832819 189.9375 85.25 C188.80663721 84.32008257 187.67783909 83.38765038 186.55078125 82.453125 C145.93633647 48.98239263 96.07707487 27.09479819 44.1875 18.875 C43.14118408 18.70718018 42.09486816 18.53936035 41.0168457 18.36645508 C33.95093532 17.3230945 27.07469625 17.06418514 19.9375 17.25 Z M-18.0625 255.25 C-18.0625 255.58 -18.0625 255.91 -18.0625 256.25 C-16.0825 256.25 -14.1025 256.25 -12.0625 256.25 C-12.0625 255.92 -12.0625 255.59 -12.0625 255.25 C-14.0425 255.25 -16.0225 255.25 -18.0625 255.25 Z M13.9375 255.25 C13.9375 255.58 13.9375 255.91 13.9375 256.25 C15.9175 256.25 17.8975 256.25 19.9375 256.25 C19.9375 255.92 19.9375 255.59 19.9375 255.25 C17.9575 255.25 15.9775 255.25 13.9375 255.25 Z " fill="#000000" transform="translate(255.0625,119.75)"/>
<path d="M0 0 C10.09817353 9.86333228 15.56132626 22.36338433 16 36.4375 C15.71541839 49.62869455 10.96976406 62.12172966 1.6875 71.625 C-8.7347348 80.8998328 -21.38057518 85.16929597 -35.203125 84.87109375 C-47.9264975 83.86409316 -60.2621051 78.5476087 -68.828125 68.921875 C-77.81656134 57.75442379 -81.43370318 44.79131325 -80.3125 30.625 C-78.39669569 18.06762722 -72.65331939 6.58376927 -62.6875 -1.4375 C-43.22967994 -15.39876072 -18.93509234 -14.55788918 0 0 Z M-56.96484375 15.62890625 C-62.61448409 23.57155464 -65.63175673 31.81852496 -64.3125 41.625 C-61.72270894 51.71961571 -57.61104558 58.82680819 -48.69921875 64.3359375 C-40.91449288 68.54045393 -33.16308713 70.12597822 -24.48046875 67.8984375 C-14.4360851 64.5182482 -8.384841 60.01651622 -3.3125 50.625 C0.53064721 42.37523664 0.89974708 34.55422811 -2 25.9375 C-5.87604778 16.38196555 -11.12179234 10.97478676 -20.54296875 6.5859375 C-33.12580494 1.8200491 -48.24997797 5.0598137 -56.96484375 15.62890625 Z " fill="#000000" transform="translate(288.3125,219.375)"/>
</svg>
